<svg fill="none" height="499" width="888" xmlns="http://www.w3.org/2000/svg" xmlns:xlink="http://www.w3.org/1999/xlink"><filter id="a" color-interpolation-filters="sRGB" filterUnits="userSpaceOnUse" height="135.287" width="202.47" x="9.447" y="45.096"><feFlood flood-opacity="0" result="BackgroundImageFix"/><feBlend in="SourceGraphic" in2="BackgroundImageFix" result="shape"/><feGaussianBlur result="effect1_foregroundBlur_306_8581" stdDeviation="18.406"/></filter><filter id="b" color-interpolation-filters="sRGB" filterUnits="userSpaceOnUse" height="135.287" width="202.47" x="193.51" y="355.243"><feFlood flood-opacity="0" result="BackgroundImageFix"/><feBlend in="SourceGraphic" in2="BackgroundImageFix" result="shape"/><feGaussianBlur result="effect1_foregroundBlur_306_8581" stdDeviation="18.406"/></filter><filter id="c" color-interpolation-filters="sRGB" filterUnits="userSpaceOnUse" height="146.331" width="223.637" x=".243" y="174.861"><feFlood flood-opacity="0" result="BackgroundImageFix"/><feBlend in="SourceGraphic" in2="BackgroundImageFix" result="shape"/><feGaussianBlur result="effect1_foregroundBlur_306_8581" stdDeviation="18.406"/></filter><filter id="d" color-interpolation-filters="sRGB" filterUnits="userSpaceOnUse" height="124.243" width="188.665" x="453.96" y="14.725"><feFlood flood-opacity="0" result="BackgroundImageFix"/><feBlend in="SourceGraphic" in2="BackgroundImageFix" result="shape"/><feGaussianBlur result="effect1_foregroundBlur_306_8581" stdDeviation="18.406"/></filter><filter id="e" color-interpolation-filters="sRGB" filterUnits="userSpaceOnUse" height="146.331" width="223.637" x="222.96" y="178.542"><feFlood flood-opacity="0" result="BackgroundImageFix"/><feBlend in="SourceGraphic" in2="BackgroundImageFix" result="shape"/><feGaussianBlur result="effect1_foregroundBlur_306_8581" stdDeviation="18.406"/></filter><filter id="f" color-interpolation-filters="sRGB" filterUnits="userSpaceOnUse" height="146.331" width="223.637" x="433.713" y="352.482"><feFlood flood-opacity="0" result="BackgroundImageFix"/><feBlend in="SourceGraphic" in2="BackgroundImageFix" result="shape"/><feGaussianBlur result="effect1_foregroundBlur_306_8581" stdDeviation="18.406"/></filter><filter id="g" color-interpolation-filters="sRGB" filterUnits="userSpaceOnUse" height="138.048" width="223.637" x="628.821" y="184.064"><feFlood flood-opacity="0" result="BackgroundImageFix"/><feBlend in="SourceGraphic" in2="BackgroundImageFix" result="shape"/><feGaussianBlur result="effect1_foregroundBlur_306_8581" stdDeviation="18.406"/></filter><filter id="h" color-interpolation-filters="sRGB" filterUnits="userSpaceOnUse" height="175.291" width="175.291" x="460.29" y="169.089"><feFlood flood-opacity="0" result="BackgroundImageFix"/><feBlend in="SourceGraphic" in2="BackgroundImageFix" result="shape"/><feGaussianBlur result="effect1_foregroundBlur_306_8581" stdDeviation="18.406"/></filter><filter id="i" color-interpolation-filters="sRGB" filterUnits="userSpaceOnUse" height="156.11" width="156.11" x="666.232" y="7.505"><feFlood flood-opacity="0" result="BackgroundImageFix"/><feBlend in="SourceGraphic" in2="BackgroundImageFix" result="shape"/><feGaussianBlur result="effect1_foregroundBlur_306_8581" stdDeviation="18.406"/></filter><linearGradient id="j"><stop offset="0" stop-color="#ff8f02"/><stop offset="1" stop-color="#ff6b00"/></linearGradient><linearGradient id="k" gradientUnits="userSpaceOnUse" x1="470.526" x2="580.044" xlink:href="#j" y1="343.413" y2="343.413"/><linearGradient id="l" gradientUnits="userSpaceOnUse" x1="677.598" x2="772.609" xlink:href="#j" y1="161.396" y2="161.396"/><path d="m547.833 180.383a.92.92 0 0 0 1.84 0zm.92-82.83-5.314 9.204h10.627l-5.313-9.203zm.92 82.83v-74.546h-1.84v74.546zm-436.231-69.945a.92.92 0 0 0 -1.84 0zm-.92 82.829 5.313-9.203h-10.626zm-.92-82.829v74.546h1.84v-74.546zm436.23 187.745a.92.92 0 0 0 -1.84 0zm-.92 74.546 5.314-9.203h-10.627zm-.92-74.546v66.263h1.84v-66.263zm-74.546 117.801a.92.92 0 1 0 0-1.841zm-92.032-.92 9.204 5.313v-10.627zm92.032-.921h-83.749v1.841h83.749zm273.335-299.103a.921.921 0 0 0 -1.841 0zm-.921 74.546 5.314-9.204h-10.627zm-.92-74.546v66.263h1.841v-66.263zm2.761 150.472a.92.92 0 0 0 -1.841 0zm-123.323 149.552 9.204 5.313v-10.627zm122.403 0v.92a.92.92 0 0 0 .92-.92zm-.921-149.552v149.552h1.841v-149.552zm.921 148.631h-114.12v1.841h114.12zm121.482-347.88h.92a.92.92 0 0 0 -.92-.92zm-115.04 348.801 9.203 5.313v-10.627zm115.04 0v.92a.92.92 0 0 0 .92-.92zm-63.042-349.721a.92.92 0 0 0 0 1.84zm62.121.92v348.801h1.841v-348.801zm.921 347.88h-106.757v1.841h106.757zm0-348.8h-63.042v1.84h63.042zm-623.056 171.179-9.203-5.313v10.626zm-122.402-.92a.92.92 0 1 0 0 1.84zm114.119 0h-114.119v1.84h114.119zm235.602.92-9.203-5.313v10.626zm-122.403-.92a.92.92 0 0 0 0 1.84zm114.12 0h-114.12v1.84h114.12zm217.195-169.339-9.203-5.314v10.627zm-122.402-.92a.92.92 0 0 0 0 1.84zm114.12 0h-114.12v1.84h114.12z" fill="#8f99a4"/><g filter="url(#a)" opacity=".3"><rect fill="#566fa0" height="61.661" rx="23.928" width="128.845" x="46.259" y="81.908"/></g><rect fill="#283b50" height="79.147" rx="14.725" width="182.223" x="19.57" y="64.422"/><g filter="url(#b)" opacity=".3"><rect fill="#566fa0" height="61.661" rx="23.928" width="128.845" x="230.323" y="392.056"/></g><rect fill="#283b50" height="79.147" rx="14.725" width="160.135" x="214.677" y="374.57"/><path d="m266.901 400.35h8.408v1.752h-3.21v8.555h-1.988v-8.555h-3.21zm9.732 2.43h1.914v7.877h-1.914zm.942-3.387c.314 0 .574.108.781.324.206.216.309.491.309.824 0 .324-.103.594-.309.81a1.036 1.036 0 0 1 -.781.324c-.314 0-.574-.108-.78-.324a1.127 1.127 0 0 1 -.309-.81c0-.333.103-.608.309-.824s.466-.324.78-.324zm8.762 5.875c-.53-.579-1.217-.869-2.062-.869-.638 0-1.158.216-1.561.648-.392.432-.589.992-.589 1.679 0 .707.197 1.276.589 1.708.403.432.923.648 1.561.648.943 0 1.65-.309 2.121-.928l1.192.987c-.353.51-.819.903-1.398 1.178-.58.275-1.252.412-2.018.412-.775 0-1.467-.167-2.076-.501a3.55 3.55 0 0 1 -1.399-1.398c-.334-.609-.501-1.306-.501-2.091 0-.796.167-1.497.501-2.106a3.627 3.627 0 0 1 1.414-1.414c.608-.333 1.305-.5 2.091-.5.716 0 1.354.127 1.914.382a3.403 3.403 0 0 1 1.384 1.061zm8.223 5.389-2.135-3.445-1.207 1.266v2.179h-1.915v-10.926h1.915v6.332l3.239-3.269h2.209l-2.916 3.034 3.093 4.829zm6.481-7.936c1.256 0 2.199.358 2.827 1.075.638.716.957 1.722.957 3.018 0 .255-.005.447-.015.574h-5.816c.127.56.388 1.002.78 1.326.403.314.894.471 1.473.471.402 0 .785-.074 1.148-.221.373-.157.697-.378.972-.663l1.031 1.075a3.984 3.984 0 0 1 -1.443 1.002 4.787 4.787 0 0 1 -1.87.353c-.805 0-1.517-.167-2.135-.501a3.524 3.524 0 0 1 -1.414-1.398c-.334-.609-.501-1.306-.501-2.091 0-.786.167-1.483.501-2.091.344-.609.82-1.08 1.428-1.414.609-.344 1.301-.515 2.077-.515zm2.032 3.386c-.02-.579-.211-1.04-.575-1.384-.363-.343-.844-.515-1.443-.515-.559 0-1.03.172-1.413.515-.373.334-.604.795-.692 1.384zm8.007 4.065c-.628.382-1.286.574-1.973.574-.677 0-1.232-.197-1.664-.589-.432-.403-.648-.992-.648-1.767v-3.888h-1.104l-.015-1.399h1.119v-2.164h1.9v2.164h2.253v1.399h-2.253v3.549c0 .363.068.623.206.781.137.147.343.22.618.22.295 0 .668-.108 1.119-.324zm5.112-7.392h1.914v7.877h-1.914zm.942-3.387c.315 0 .575.108.781.324s.309.491.309.824c0 .324-.103.594-.309.81a1.033 1.033 0 0 1 -.781.324c-.314 0-.574-.108-.78-.324a1.127 1.127 0 0 1 -.309-.81c0-.333.103-.608.309-.824s.466-.324.78-.324zm8.011 5.522a5.553 5.553 0 0 0 -1.193-.53 3.705 3.705 0 0 0 -1.119-.192c-.324 0-.584.059-.78.177-.187.108-.28.28-.28.515 0 .246.118.437.354.575.245.127.628.265 1.148.412.55.167 1.001.334 1.355.5a2.4 2.4 0 0 1 .913.722c.265.314.397.731.397 1.252 0 .765-.294 1.354-.883 1.767-.589.412-1.33.618-2.224.618a5.76 5.76 0 0 1 -1.781-.28 4.287 4.287 0 0 1 -1.473-.824l.663-1.34c.353.304.775.545 1.266.721.491.167.957.251 1.399.251.353 0 .633-.059.839-.177a.613.613 0 0 0 .324-.56.664.664 0 0 0 -.368-.618c-.245-.138-.643-.29-1.193-.457-.53-.157-.962-.309-1.295-.456a2.445 2.445 0 0 1 -.869-.692c-.246-.314-.368-.722-.368-1.222 0-.776.279-1.365.839-1.767.569-.413 1.281-.619 2.135-.619.52 0 1.031.074 1.532.221.51.147.962.353 1.354.619zm-45.883 18.353c-.53-.579-1.217-.869-2.062-.869-.638 0-1.158.216-1.56.648-.393.432-.589.992-.589 1.679 0 .707.196 1.276.589 1.708.402.432.922.648 1.56.648.943 0 1.65-.309 2.121-.928l1.193.987c-.354.51-.82.903-1.399 1.178-.58.275-1.252.412-2.018.412-.775 0-1.467-.167-2.076-.501a3.55 3.55 0 0 1 -1.399-1.398c-.334-.609-.5-1.306-.5-2.091 0-.796.166-1.497.5-2.106a3.627 3.627 0 0 1 1.414-1.414c.608-.333 1.305-.5 2.091-.5.716 0 1.354.127 1.914.382a3.403 3.403 0 0 1 1.384 1.061zm2.966-5.537h1.915v10.926h-1.915zm7.816 2.99c.815 0 1.531.167 2.15.5a3.546 3.546 0 0 1 1.457 1.414c.354.599.531 1.291.531 2.076 0 .795-.177 1.497-.531 2.106a3.543 3.543 0 0 1 -1.457 1.413c-.619.334-1.335.501-2.15.501-.825 0-1.551-.167-2.18-.501a3.642 3.642 0 0 1 -1.472-1.413c-.344-.609-.515-1.311-.515-2.106 0-.785.171-1.477.515-2.076a3.644 3.644 0 0 1 1.472-1.414c.629-.333 1.355-.5 2.18-.5zm0 1.634c-.668 0-1.208.221-1.62.663s-.618 1.016-.618 1.723c0 .706.206 1.281.618 1.722.412.442.952.663 1.62.663.648 0 1.178-.221 1.59-.663.412-.441.619-1.016.619-1.722 0-.707-.207-1.281-.619-1.723s-.942-.663-1.59-.663zm10.468.56a5.567 5.567 0 0 0 -1.192-.53 3.716 3.716 0 0 0 -1.12-.192c-.324 0-.584.059-.78.177-.187.108-.28.28-.28.515 0 .246.118.437.354.575.245.127.628.265 1.148.412.55.167 1.001.334 1.355.5a2.4 2.4 0 0 1 .913.722c.265.314.397.731.397 1.252 0 .765-.294 1.354-.883 1.767-.589.412-1.33.618-2.224.618a5.76 5.76 0 0 1 -1.781-.28 4.296 4.296 0 0 1 -1.473-.824l.663-1.34c.353.304.775.545 1.266.721.491.167.957.251 1.399.251.353 0 .633-.059.839-.177a.613.613 0 0 0 .324-.56.664.664 0 0 0 -.368-.618c-.245-.138-.643-.29-1.193-.457-.53-.157-.962-.309-1.295-.456a2.445 2.445 0 0 1 -.869-.692c-.246-.314-.368-.722-.368-1.222 0-.776.28-1.365.839-1.767.569-.413 1.281-.619 2.135-.619.521 0 1.031.074 1.532.221.51.147.962.353 1.354.619zm5.72-2.194c1.256 0 2.199.358 2.827 1.075.638.716.957 1.722.957 3.018 0 .255-.005.447-.015.574h-5.816c.128.56.388 1.002.78 1.326.403.314.894.471 1.473.471a3.04 3.04 0 0 0 1.149-.221c.373-.157.697-.378.971-.663l1.031 1.075a3.984 3.984 0 0 1 -1.443 1.002 4.783 4.783 0 0 1 -1.87.353c-.805 0-1.517-.167-2.135-.501a3.524 3.524 0 0 1 -1.414-1.398c-.334-.609-.5-1.306-.5-2.091 0-.786.166-1.483.5-2.091a3.6 3.6 0 0 1 1.429-1.414c.608-.344 1.3-.515 2.076-.515zm2.032 3.386c-.02-.579-.211-1.04-.574-1.384-.364-.343-.845-.515-1.443-.515-.56 0-1.031.172-1.414.515-.373.334-.604.795-.692 1.384zm10.997-6.376v10.926h-1.915v-1.266a2.877 2.877 0 0 1 -1.104 1.016c-.442.226-.957.339-1.546.339-.746 0-1.404-.167-1.973-.501a3.543 3.543 0 0 1 -1.311-1.428c-.314-.619-.471-1.325-.471-2.121 0-.785.152-1.477.456-2.076a3.44 3.44 0 0 1 1.311-1.413c.569-.334 1.217-.501 1.944-.501.598 0 1.124.118 1.575.353a3 3 0 0 1 1.119 1.016v-4.344zm-4.153 9.41c.658 0 1.193-.221 1.605-.663.422-.451.633-1.031.633-1.737 0-.707-.211-1.281-.633-1.723-.412-.452-.947-.678-1.605-.678s-1.193.226-1.605.678c-.412.442-.623 1.016-.633 1.723.01.706.221 1.286.633 1.737.412.442.947.663 1.605.663zm-265.237-336.939h8.408v1.753h-3.21v8.555h-1.988v-8.555h-3.21zm9.732 2.43h1.914v7.878h-1.914zm.942-3.387c.314 0 .575.108.78.324.207.216.31.491.31.825 0 .324-.103.594-.31.81a1.033 1.033 0 0 1 -.78.324c-.314 0-.574-.108-.78-.324a1.126 1.126 0 0 1 -.31-.81c0-.334.104-.609.31-.825s.466-.324.78-.324zm8.762 5.876c-.53-.58-1.217-.87-2.062-.87-.638 0-1.158.217-1.56.649-.393.432-.59.991-.59 1.678 0 .707.197 1.277.59 1.709.402.431.922.647 1.56.647.943 0 1.65-.309 2.12-.927l1.194.986a3.48 3.48 0 0 1 -1.4 1.178c-.579.275-1.251.413-2.017.413-.775 0-1.467-.167-2.076-.501a3.551 3.551 0 0 1 -1.399-1.399c-.334-.608-.5-1.305-.5-2.09 0-.796.166-1.498.5-2.107a3.624 3.624 0 0 1 1.414-1.413c.608-.334 1.305-.5 2.09-.5.717 0 1.355.127 1.915.382.57.245 1.03.599 1.384 1.06zm8.223 5.389-2.135-3.446-1.207 1.267v2.179h-1.915v-10.926h1.915v6.332l3.24-3.27h2.208l-2.916 3.034 3.093 4.83zm6.48-7.937c1.257 0 2.2.359 2.828 1.075.638.717.957 1.723.957 3.019 0 .255-.005.446-.015.574h-5.816c.127.56.388 1.001.78 1.325.403.314.894.471 1.473.471a3.03 3.03 0 0 0 1.148-.22c.373-.157.697-.378.972-.663l1.031 1.075a3.97 3.97 0 0 1 -1.443 1.001 4.767 4.767 0 0 1 -1.87.354c-.805 0-1.517-.167-2.135-.501a3.526 3.526 0 0 1 -1.414-1.399c-.334-.608-.5-1.305-.5-2.09 0-.786.166-1.483.5-2.092a3.6 3.6 0 0 1 1.428-1.413c.61-.344 1.301-.516 2.077-.516zm2.033 3.387c-.02-.58-.211-1.04-.575-1.384-.363-.344-.844-.516-1.443-.516-.56 0-1.03.172-1.413.516-.373.334-.604.795-.692 1.384zm8.007 4.064a3.735 3.735 0 0 1 -1.973.574c-.677 0-1.232-.196-1.664-.589-.432-.402-.648-.991-.648-1.767v-3.887h-1.104l-.015-1.399h1.12v-2.165h1.899v2.165h2.253v1.399h-2.253v3.549c0 .363.069.623.206.78.137.147.344.221.618.221.295 0 .668-.108 1.12-.324zm9.78-5.257a5.593 5.593 0 0 0 -1.193-.53 3.715 3.715 0 0 0 -1.119-.191c-.324 0-.584.059-.78.176-.187.108-.28.28-.28.516 0 .245.118.437.353.574.246.128.629.265 1.149.412.55.167 1.001.334 1.355.501.353.157.657.398.913.722.265.314.397.73.397 1.251 0 .766-.294 1.355-.883 1.767s-1.331.619-2.224.619a5.793 5.793 0 0 1 -1.782-.28 4.282 4.282 0 0 1 -1.472-.825l.663-1.34c.353.305.775.545 1.266.722.491.167.957.25 1.399.25.353 0 .633-.059.839-.177a.613.613 0 0 0 .324-.56.667.667 0 0 0 -.368-.618c-.246-.137-.643-.29-1.193-.456a11.12 11.12 0 0 1 -1.296-.456 2.448 2.448 0 0 1 -.868-.693c-.246-.314-.368-.721-.368-1.222 0-.775.28-1.364.839-1.767.569-.412 1.281-.618 2.135-.618.52 0 1.031.073 1.531.22a4.76 4.76 0 0 1 1.355.62zm9.71-2.135v7.878h-1.929v-1.458c-.53 1.021-1.443 1.532-2.739 1.532-.883 0-1.58-.27-2.091-.81-.51-.54-.766-1.276-.766-2.209v-4.933h1.929v4.373c0 .55.148.982.442 1.296.305.314.722.471 1.252.471.609-.01 1.09-.225 1.443-.648.353-.422.53-.957.53-1.605v-3.887zm7.028-.059c.736 0 1.384.172 1.943.516.57.333 1.007.805 1.311 1.413.314.609.471 1.31.471 2.106 0 .785-.152 1.477-.456 2.076a3.377 3.377 0 0 1 -1.296 1.399c-.56.334-1.208.501-1.944.501-.589 0-1.109-.113-1.561-.339a3.008 3.008 0 0 1 -1.119-1.016v1.281h-1.914v-10.926h1.914v4.344a2.802 2.802 0 0 1 1.09-1.001c.451-.236.972-.354 1.561-.354zm-.427 6.361c.647 0 1.178-.22 1.59-.662.412-.452.618-1.026.618-1.723s-.206-1.266-.618-1.708-.943-.663-1.59-.663c-.658 0-1.193.221-1.605.663-.413.442-.619 1.011-.619 1.708 0 .707.206 1.281.619 1.723.412.441.947.662 1.605.662zm16.133-6.376c.894 0 1.596.275 2.106.825.51.54.766 1.276.766 2.209v4.918h-1.929v-4.359c0-.56-.157-.996-.471-1.31-.305-.324-.722-.486-1.252-.486-.609.02-1.095.24-1.458.662-.353.423-.53.958-.53 1.606v3.887h-1.929v-4.359c0-.56-.152-.996-.456-1.31-.305-.324-.722-.486-1.252-.486-.619.02-1.109.24-1.473.662-.353.423-.53.958-.53 1.606v3.887h-1.914v-7.878h1.914v1.458c.521-1.001 1.443-1.512 2.769-1.532.687 0 1.261.167 1.722.501.472.324.8.785.987 1.384.501-1.237 1.477-1.865 2.93-1.885zm5.007.074h1.914v7.878h-1.914zm.942-3.387c.315 0 .575.108.781.324s.309.491.309.825c0 .324-.103.594-.309.81a1.033 1.033 0 0 1 -.781.324c-.314 0-.574-.108-.78-.324a1.127 1.127 0 0 1 -.309-.81c0-.334.103-.609.309-.825s.466-.324.78-.324zm7.952 10.779a3.734 3.734 0 0 1 -1.973.574c-.677 0-1.232-.196-1.664-.589-.432-.402-.648-.991-.648-1.767v-3.887h-1.104l-.015-1.399h1.119v-2.165h1.9v2.165h2.253v1.399h-2.253v3.549c0 .363.069.623.206.78.137.147.344.221.618.221.295 0 .668-.108 1.12-.324zm6.112 0c-.629.383-1.286.574-1.973.574-.678 0-1.232-.196-1.664-.589-.432-.402-.648-.991-.648-1.767v-3.887h-1.105l-.014-1.399h1.119v-2.165h1.899v2.165h2.253v1.399h-2.253v3.549c0 .363.069.623.206.78.138.147.344.221.619.221.294 0 .667-.108 1.119-.324zm4.714-7.45c1.257 0 2.199.358 2.827 1.074.638.717.957 1.723.957 3.019 0 .255-.004.446-.014.574h-5.817c.128.56.388 1.001.781 1.325.402.314.893.471 1.472.471.403 0 .786-.073 1.149-.22a2.9 2.9 0 0 0 .972-.663l1.03 1.075a3.958 3.958 0 0 1 -1.443 1.001c-.559.236-1.183.354-1.87.354-.805 0-1.516-.167-2.135-.501a3.517 3.517 0 0 1 -1.413-1.399c-.334-.608-.501-1.305-.501-2.09 0-.786.167-1.483.501-2.092a3.59 3.59 0 0 1 1.428-1.413c.608-.344 1.301-.516 2.076-.516zm2.032 3.386c-.019-.58-.211-1.04-.574-1.384s-.844-.516-1.443-.516c-.56 0-1.031.172-1.414.516-.373.334-.604.795-.692 1.384zm10.997-6.376v10.926h-1.914v-1.266a2.89 2.89 0 0 1 -1.105 1.016c-.442.225-.957.338-1.546.338-.746 0-1.404-.167-1.973-.5a3.546 3.546 0 0 1 -1.311-1.429c-.314-.618-.471-1.325-.471-2.12 0-.785.152-1.478.457-2.076a3.446 3.446 0 0 1 1.31-1.414c.57-.334 1.217-.5 1.944-.5.599 0 1.124.117 1.575.353a3 3 0 0 1 1.12 1.016v-4.344zm-4.153 9.41c.658 0 1.193-.222 1.605-.663.422-.452.634-1.031.634-1.738s-.212-1.281-.634-1.723c-.412-.451-.947-.677-1.605-.677-.657 0-1.192.226-1.605.677-.412.442-.623 1.016-.633 1.723.01.707.221 1.286.633 1.738.413.441.948.662 1.605.662zm-98.352 11.579c.736 0 1.384.172 1.943.516.57.333 1.007.805 1.31 1.413.315.609.472 1.311.472 2.106 0 .785-.152 1.477-.456 2.076a3.368 3.368 0 0 1 -1.296 1.399c-.56.334-1.208.501-1.944.501-.589 0-1.11-.113-1.56-.339a3 3 0 0 1 -1.12-1.016v1.281h-1.914v-10.926h1.914v4.344a2.792 2.792 0 0 1 1.09-1.001c.451-.236.972-.354 1.56-.354zm-.427 6.361c.648 0 1.178-.22 1.59-.662.412-.452.618-1.026.618-1.723s-.206-1.266-.618-1.708-.942-.663-1.59-.663c-.658 0-1.193.221-1.605.663-.413.442-.619 1.011-.619 1.708 0 .707.206 1.281.619 1.723.412.442.947.662 1.605.662zm8.91 2.563c-.245.647-.599 1.133-1.06 1.457-.452.334-.992.501-1.62.501a2.953 2.953 0 0 1 -1.959-.707l.825-1.458c.187.138.358.236.516.295.157.069.324.103.5.103.52 0 .903-.265 1.149-.795l.235-.516-3.254-7.745h1.988l2.238 5.728 2.047-5.728h1.929zm15.786-8.32a3.867 3.867 0 0 0 -1.296-.987 3.444 3.444 0 0 0 -1.502-.353 3.46 3.46 0 0 0 -1.752.456c-.53.305-.947.727-1.251 1.267a3.455 3.455 0 0 0 -.457 1.752c0 .638.152 1.227.457 1.767.304.53.721.952 1.251 1.266a3.45 3.45 0 0 0 1.752.457c.491 0 .982-.108 1.473-.324.5-.216.942-.515 1.325-.898l1.163 1.296a6.202 6.202 0 0 1 -1.884 1.31 5.384 5.384 0 0 1 -2.18.471c-.991 0-1.9-.235-2.724-.707a5.196 5.196 0 0 1 -1.944-1.914 5.287 5.287 0 0 1 -.706-2.695c0-.981.24-1.874.721-2.679a5.196 5.196 0 0 1 1.959-1.9c.834-.461 1.757-.692 2.768-.692.736 0 1.458.147 2.165.442a5.31 5.31 0 0 1 1.81 1.222zm9.988-.545v7.878h-1.929v-1.458c-.53 1.021-1.443 1.532-2.739 1.532-.883 0-1.58-.27-2.09-.81-.511-.54-.767-1.276-.767-2.209v-4.933h1.929v4.373c0 .55.148.982.442 1.296.305.314.722.471 1.252.471.609-.009 1.09-.225 1.443-.647.353-.423.53-.958.53-1.605v-3.888zm7.057 2.135a5.602 5.602 0 0 0 -1.193-.53 3.702 3.702 0 0 0 -1.119-.191c-.324 0-.584.059-.78.176-.187.108-.28.28-.28.516 0 .245.118.437.353.574.246.128.629.265 1.149.412.55.167 1.001.334 1.355.501.353.157.657.398.913.722.265.314.397.731.397 1.251 0 .766-.294 1.355-.883 1.767s-1.33.619-2.224.619a5.802 5.802 0 0 1 -1.782-.28 4.267 4.267 0 0 1 -1.472-.825l.663-1.34c.353.305.775.545 1.266.722.491.167.957.25 1.399.25.353 0 .633-.059.839-.177a.612.612 0 0 0 .324-.559.669.669 0 0 0 -.368-.619c-.245-.137-.643-.289-1.193-.456-.53-.157-.962-.309-1.296-.457a2.44 2.44 0 0 1 -.868-.692c-.246-.314-.368-.721-.368-1.222 0-.775.279-1.364.839-1.767.569-.412 1.281-.618 2.135-.618.52 0 1.031.073 1.531.221.511.147.962.353 1.355.618zm7.045 5.257a3.734 3.734 0 0 1 -1.973.574c-.678 0-1.232-.196-1.664-.589-.432-.402-.648-.991-.648-1.767v-3.887h-1.105l-.014-1.399h1.119v-2.165h1.899v2.165h2.253v1.399h-2.253v3.549c0 .363.069.623.207.78.137.147.343.221.618.221.294 0 .668-.108 1.119-.324zm4.876-7.451c.815 0 1.532.167 2.15.501a3.558 3.558 0 0 1 1.458 1.413c.353.599.53 1.291.53 2.077 0 .795-.177 1.497-.53 2.105a3.554 3.554 0 0 1 -1.458 1.414c-.618.334-1.335.501-2.15.501-.824 0-1.551-.167-2.179-.501a3.653 3.653 0 0 1 -1.473-1.414c-.343-.608-.515-1.31-.515-2.105 0-.786.172-1.478.515-2.077a3.657 3.657 0 0 1 1.473-1.413c.628-.334 1.355-.501 2.179-.501zm0 1.635c-.667 0-1.207.221-1.62.662-.412.442-.618 1.016-.618 1.723s.206 1.281.618 1.723c.413.442.953.663 1.62.663.648 0 1.178-.221 1.59-.663.413-.442.619-1.016.619-1.723s-.206-1.281-.619-1.723c-.412-.441-.942-.662-1.59-.662zm16.123-1.65c.893 0 1.595.275 2.106.825.51.54.765 1.276.765 2.209v4.918h-1.928v-4.359c0-.559-.158-.996-.472-1.31-.304-.324-.721-.486-1.251-.486-.609.02-1.095.24-1.458.663-.354.422-.53.957-.53 1.605v3.887h-1.929v-4.359c0-.559-.152-.996-.457-1.31-.304-.324-.721-.486-1.251-.486-.619.02-1.11.24-1.473.663-.353.422-.53.957-.53 1.605v3.887h-1.914v-7.878h1.914v1.458c.52-1.001 1.443-1.512 2.768-1.532.688 0 1.262.167 1.723.501.471.324.8.785.987 1.384.5-1.237 1.477-1.865 2.93-1.885zm8.291.015c1.256 0 2.199.358 2.827 1.075.638.717.957 1.723.957 3.019 0 .255-.005.446-.015.574h-5.816c.127.56.388 1.001.78 1.325.403.314.894.471 1.473.471a3.03 3.03 0 0 0 1.148-.22c.373-.157.697-.378.972-.663l1.031 1.075a3.97 3.97 0 0 1 -1.443 1.001 4.769 4.769 0 0 1 -1.87.354c-.805 0-1.517-.167-2.135-.501a3.526 3.526 0 0 1 -1.414-1.399c-.334-.609-.501-1.306-.501-2.091s.167-1.482.501-2.091a3.6 3.6 0 0 1 1.428-1.413c.609-.344 1.301-.516 2.077-.516zm2.032 3.387c-.02-.579-.211-1.041-.575-1.384-.363-.344-.844-.516-1.443-.516-.559 0-1.03.172-1.413.516-.373.334-.604.795-.692 1.384zm5.312-1.811a2.818 2.818 0 0 1 1.075-1.164c.462-.274.997-.417 1.605-.427v1.856c-.814-.049-1.467.142-1.958.574-.481.422-.722.996-.722 1.723v3.799h-1.914v-7.878h1.914z" fill="#fff"/><g filter="url(#c)" opacity=".3"><rect fill="#566fa0" height="72.705" rx="36.353" width="150.012" x="37.056" y="211.673"/></g><rect fill="#3477f9" height="76.386" rx="22.088" width="179.462" x="22.331" y="195.108"/><path d="m52.805 219.207h8.408v1.752h-3.21v8.555h-1.988v-8.555h-3.21zm9.732 2.429h1.914v7.878h-1.914zm.942-3.387c.314 0 .575.108.78.324.207.216.31.491.31.825 0 .324-.103.594-.31.81a1.033 1.033 0 0 1 -.78.324c-.314 0-.574-.108-.78-.324a1.127 1.127 0 0 1 -.31-.81c0-.334.104-.609.31-.825s.466-.324.78-.324zm8.762 5.876c-.53-.579-1.217-.869-2.062-.869-.638 0-1.158.216-1.56.648-.393.432-.59.991-.59 1.679 0 .706.197 1.276.59 1.708.402.432.922.648 1.56.648.943 0 1.65-.31 2.12-.928l1.194.986c-.354.511-.82.904-1.4 1.178-.579.275-1.251.413-2.017.413-.775 0-1.467-.167-2.076-.501a3.552 3.552 0 0 1 -1.399-1.399c-.334-.608-.5-1.305-.5-2.091 0-.795.166-1.497.5-2.105a3.624 3.624 0 0 1 1.414-1.414c.608-.334 1.305-.501 2.09-.501.717 0 1.355.128 1.915.383a3.41 3.41 0 0 1 1.384 1.06zm8.223 5.389-2.135-3.446-1.207 1.267v2.179h-1.915v-10.926h1.915v6.332l3.24-3.269h2.208l-2.916 3.033 3.093 4.83zm6.48-7.937c1.257 0 2.2.359 2.828 1.075.638.717.957 1.723.957 3.019 0 .255-.005.447-.015.574h-5.816c.127.56.388 1.001.78 1.325.403.315.894.472 1.473.472.402 0 .785-.074 1.148-.221.373-.157.697-.378.972-.663l1.031 1.075a3.964 3.964 0 0 1 -1.443 1.001 4.767 4.767 0 0 1 -1.87.354c-.805 0-1.517-.167-2.135-.501a3.526 3.526 0 0 1 -1.414-1.399c-.334-.608-.5-1.305-.5-2.091 0-.785.166-1.482.5-2.091a3.6 3.6 0 0 1 1.428-1.413c.61-.344 1.301-.516 2.077-.516zm2.033 3.387c-.02-.579-.211-1.04-.575-1.384-.363-.344-.844-.515-1.443-.515-.56 0-1.03.171-1.413.515-.373.334-.604.795-.692 1.384zm8.007 4.064c-.628.383-1.286.575-1.973.575-.677 0-1.232-.197-1.664-.589-.432-.403-.648-.992-.648-1.768v-3.887h-1.104l-.015-1.399h1.12v-2.164h1.899v2.164h2.253v1.399h-2.253v3.549c0 .363.069.623.206.78.137.147.343.221.618.221.295 0 .668-.108 1.12-.324zm5.112-7.392h1.914v7.878h-1.914zm.943-3.387c.314 0 .574.108.78.324s.309.491.309.825c0 .324-.103.594-.309.81a1.032 1.032 0 0 1 -.78.324c-.315 0-.575-.108-.781-.324a1.127 1.127 0 0 1 -.309-.81c0-.334.103-.609.309-.825s.466-.324.781-.324zm8.01 5.522a5.653 5.653 0 0 0 -1.193-.53 3.733 3.733 0 0 0 -1.119-.191c-.324 0-.584.059-.78.177-.187.108-.28.279-.28.515 0 .245.118.437.354.574.245.128.628.265 1.148.413.55.166 1.001.333 1.355.5.353.157.658.398.913.722.265.314.397.731.397 1.251 0 .766-.294 1.355-.883 1.767-.589.413-1.33.619-2.224.619a5.76 5.76 0 0 1 -1.781-.28 4.272 4.272 0 0 1 -1.473-.825l.663-1.34c.353.305.775.545 1.266.722.491.167.957.25 1.399.25.353 0 .633-.059.839-.176a.614.614 0 0 0 .324-.56.664.664 0 0 0 -.368-.618c-.245-.138-.643-.29-1.193-.457-.53-.157-.962-.309-1.295-.456a2.445 2.445 0 0 1 -.869-.692c-.246-.315-.368-.722-.368-1.223 0-.775.279-1.364.839-1.767.569-.412 1.281-.618 2.135-.618.52 0 1.031.074 1.532.221.51.147.962.353 1.354.618zm11.464.354c-.53-.579-1.217-.869-2.061-.869-.638 0-1.159.216-1.561.648-.393.432-.589.991-.589 1.679 0 .706.196 1.276.589 1.708.402.432.923.648 1.561.648.942 0 1.649-.31 2.12-.928l1.193.986c-.353.511-.82.904-1.399 1.178-.579.275-1.252.413-2.017.413-.776 0-1.468-.167-2.077-.501a3.55 3.55 0 0 1 -1.398-1.399c-.334-.608-.501-1.305-.501-2.091 0-.795.167-1.497.501-2.105a3.618 3.618 0 0 1 1.413-1.414c.609-.334 1.306-.501 2.091-.501.717 0 1.355.128 1.914.383.57.246 1.031.599 1.385 1.06zm4.807-.972a2.81 2.81 0 0 1 1.075-1.163c.462-.275.997-.418 1.605-.427v1.855c-.814-.049-1.467.142-1.958.574-.481.422-.722.997-.722 1.723v3.799h-1.914v-7.878h1.914zm7.309-1.576c1.256 0 2.199.359 2.827 1.075.638.717.957 1.723.957 3.019 0 .255-.005.447-.015.574h-5.816c.128.56.388 1.001.78 1.325.403.315.894.472 1.473.472.402 0 .785-.074 1.148-.221.373-.157.697-.378.972-.663l1.031 1.075a3.97 3.97 0 0 1 -1.443 1.001 4.769 4.769 0 0 1 -1.87.354c-.805 0-1.517-.167-2.135-.501a3.526 3.526 0 0 1 -1.414-1.399c-.334-.608-.501-1.305-.501-2.091 0-.785.167-1.482.501-2.091a3.6 3.6 0 0 1 1.428-1.413c.609-.344 1.301-.516 2.077-.516zm2.032 3.387c-.02-.579-.211-1.04-.575-1.384-.363-.344-.844-.515-1.443-.515-.559 0-1.03.171-1.413.515-.373.334-.604.795-.692 1.384zm8.051 4.55v-.957a2.564 2.564 0 0 1 -1.06.78c-.432.177-.927.266-1.487.266-.55 0-1.036-.104-1.458-.31a2.385 2.385 0 0 1 -.957-.883 2.368 2.368 0 0 1 -.339-1.252c0-.736.261-1.31.781-1.723.52-.422 1.256-.638 2.209-.648h2.297v-.206c0-.461-.152-.819-.457-1.075-.304-.255-.746-.383-1.325-.383-.746 0-1.527.246-2.341.737l-.692-1.326c.618-.343 1.178-.589 1.678-.736.511-.157 1.105-.235 1.782-.235 1.021 0 1.811.245 2.371.736.569.491.859 1.178.868 2.061l.015 5.154zm-2.091-1.384c.55 0 1.021-.128 1.414-.383.393-.265.614-.589.663-.972v-.707h-1.988c-.511 0-.889.079-1.134.236-.236.147-.353.393-.353.736 0 .334.122.599.368.795.255.197.598.295 1.03.295zm10.733.898c-.629.383-1.286.575-1.973.575-.678 0-1.232-.197-1.664-.589-.432-.403-.648-.992-.648-1.768v-3.887h-1.105l-.014-1.399h1.119v-2.164h1.899v2.164h2.253v1.399h-2.253v3.549c0 .363.069.623.206.78.138.147.344.221.619.221.294 0 .667-.108 1.119-.324zm4.714-7.451c1.257 0 2.199.359 2.827 1.075.638.717.957 1.723.957 3.019 0 .255-.004.447-.014.574h-5.817c.128.56.388 1.001.781 1.325.402.315.893.472 1.472.472.403 0 .786-.074 1.149-.221.373-.157.697-.378.972-.663l1.03 1.075a3.953 3.953 0 0 1 -1.443 1.001c-.559.236-1.183.354-1.87.354-.805 0-1.516-.167-2.135-.501a3.526 3.526 0 0 1 -1.414-1.399c-.333-.608-.5-1.305-.5-2.091 0-.785.167-1.482.5-2.091.344-.608.82-1.08 1.429-1.413.608-.344 1.301-.516 2.076-.516zm2.032 3.387c-.02-.579-.211-1.04-.574-1.384s-.844-.515-1.443-.515c-.56 0-1.031.171-1.414.515-.373.334-.604.795-.692 1.384zm10.997-6.376v10.926h-1.914v-1.266c-.285.442-.653.78-1.105 1.016-.442.226-.957.339-1.546.339-.746 0-1.404-.167-1.973-.501a3.549 3.549 0 0 1 -1.311-1.428c-.314-.619-.471-1.326-.471-2.121 0-.785.152-1.477.457-2.076a3.446 3.446 0 0 1 1.31-1.414c.569-.334 1.217-.5 1.944-.5.599 0 1.124.117 1.575.353.452.236.825.574 1.12 1.016v-4.344zm-4.153 9.409c.658 0 1.193-.22 1.605-.662.422-.452.634-1.031.634-1.738s-.212-1.281-.634-1.723c-.412-.451-.947-.677-1.605-.677-.657 0-1.192.226-1.605.677-.412.442-.623 1.016-.633 1.723.01.707.221 1.286.633 1.738.413.442.948.662 1.605.662zm-97.252 22.517v-.957a2.57 2.57 0 0 1 -1.06.78c-.432.177-.928.266-1.487.266-.55 0-1.036-.104-1.458-.31a2.382 2.382 0 0 1 -.957-.883 2.37 2.37 0 0 1 -.339-1.252c0-.736.26-1.31.78-1.723.52-.422 1.257-.638 2.21-.648h2.296v-.206c0-.461-.152-.819-.456-1.075-.305-.255-.746-.383-1.325-.383-.746 0-1.527.246-2.342.737l-.692-1.326c.619-.343 1.178-.589 1.679-.736.51-.157 1.104-.235 1.782-.235 1.02 0 1.81.245 2.37.736.57.491.86 1.178.87 2.061l.014 5.154zm-2.09-1.384c.549 0 1.02-.128 1.413-.383.392-.265.613-.589.662-.972v-.707h-1.987c-.51 0-.888.079-1.133.236-.236.147-.354.393-.354.736 0 .334.123.599.368.795.256.197.6.295 1.031.295zm10.864-6.567c.903 0 1.615.274 2.135.824.52.54.78 1.276.78 2.209v4.918h-1.928v-4.358c0-.55-.158-.982-.472-1.296-.314-.324-.74-.486-1.28-.486-.639.01-1.144.226-1.517.648-.364.422-.545.962-.545 1.619v3.873h-1.915v-7.878h1.915v1.473c.54-1.011 1.482-1.527 2.827-1.546zm12.664-2.975v10.926h-1.914v-1.266c-.285.442-.653.78-1.105 1.016-.442.226-.957.339-1.546.339-.746 0-1.404-.167-1.973-.501a3.552 3.552 0 0 1 -1.31-1.428c-.315-.619-.472-1.326-.472-2.121 0-.785.152-1.477.456-2.076a3.445 3.445 0 0 1 1.311-1.414c.57-.334 1.217-.5 1.944-.5.599 0 1.124.117 1.575.353a3 3 0 0 1 1.12 1.016v-4.344zm-4.153 9.409c.658 0 1.193-.22 1.605-.662.422-.452.634-1.031.634-1.738s-.212-1.281-.634-1.723c-.412-.451-.947-.677-1.605-.677-.657 0-1.193.226-1.605.677-.412.442-.623 1.016-.633 1.723.01.707.22 1.286.633 1.738.412.442.948.662 1.605.662zm14.869 1.517v-.957a2.574 2.574 0 0 1 -1.061.78c-.431.177-.927.266-1.487.266-.55 0-1.035-.104-1.458-.31a2.382 2.382 0 0 1 -.957-.883 2.37 2.37 0 0 1 -.338-1.252c0-.736.26-1.31.78-1.723.52-.422 1.257-.638 2.209-.648h2.297v-.206c0-.461-.152-.819-.457-1.075-.304-.255-.746-.383-1.325-.383-.746 0-1.526.246-2.341.737l-.692-1.326c.618-.343 1.178-.589 1.678-.736.511-.157 1.105-.235 1.782-.235 1.021 0 1.811.245 2.371.736.569.491.859 1.178.869 2.061l.014 5.154zm-2.091-1.384c.549 0 1.021-.128 1.413-.383.393-.265.614-.589.663-.972v-.707h-1.988c-.51 0-.888.079-1.134.236-.235.147-.353.393-.353.736 0 .334.123.599.368.795.255.197.599.295 1.03.295zm10.791-4.359a5.675 5.675 0 0 0 -1.193-.53 3.733 3.733 0 0 0 -1.119-.191c-.324 0-.584.059-.78.177-.187.108-.28.279-.28.515 0 .245.118.437.353.574.246.128.629.265 1.149.413.55.166 1.001.333 1.355.5.353.157.657.398.912.722.266.314.398.731.398 1.251 0 .766-.294 1.355-.883 1.767-.589.413-1.331.619-2.224.619a5.767 5.767 0 0 1 -1.782-.28 4.267 4.267 0 0 1 -1.472-.825l.662-1.34a3.99 3.99 0 0 0 1.267.722c.491.167.957.25 1.399.25.353 0 .633-.059.839-.176a.614.614 0 0 0 .324-.56.666.666 0 0 0 -.368-.618c-.246-.138-.643-.29-1.193-.457-.53-.157-.962-.309-1.296-.456a2.45 2.45 0 0 1 -.868-.692c-.246-.315-.369-.722-.369-1.223 0-.775.28-1.364.84-1.767.569-.412 1.281-.618 2.135-.618.52 0 1.031.074 1.531.221.511.147.962.353 1.355.618zm7.104 0a5.675 5.675 0 0 0 -1.193-.53 3.743 3.743 0 0 0 -1.119-.191c-.324 0-.584.059-.781.177-.186.108-.279.279-.279.515 0 .245.117.437.353.574.245.128.628.265 1.149.413a10.01 10.01 0 0 1 1.354.5c.354.157.658.398.913.722.265.314.398.731.398 1.251 0 .766-.295 1.355-.884 1.767-.589.413-1.33.619-2.223.619a5.763 5.763 0 0 1 -1.782-.28 4.267 4.267 0 0 1 -1.472-.825l.662-1.34a3.99 3.99 0 0 0 1.267.722c.49.167.957.25 1.398.25.354 0 .634-.059.84-.176a.614.614 0 0 0 .324-.56.666.666 0 0 0 -.368-.618c-.246-.138-.643-.29-1.193-.457-.53-.157-.962-.309-1.296-.456a2.454 2.454 0 0 1 -.869-.692c-.245-.315-.368-.722-.368-1.223 0-.775.28-1.364.839-1.767.57-.412 1.282-.618 2.136-.618.52 0 1.03.074 1.531.221.51.147.962.353 1.355.618zm2.435-2.135h1.915v7.878h-1.915zm.943-3.387c.314 0 .574.108.78.324s.31.491.31.825c0 .324-.104.594-.31.81a1.032 1.032 0 0 1 -.78.324c-.314 0-.574-.108-.781-.324a1.127 1.127 0 0 1 -.309-.81c0-.334.103-.609.309-.825.207-.216.467-.324.781-.324zm10.543 3.387v7.127c0 .746-.172 1.394-.515 1.944-.334.559-.815.986-1.443 1.281-.619.304-1.34.456-2.165.456-1.197 0-2.307-.348-3.328-1.045l.766-1.384c.746.55 1.566.824 2.459.824.707 0 1.267-.181 1.679-.544.422-.364.633-.859.633-1.488v-.927a2.68 2.68 0 0 1 -1.031.927c-.422.207-.913.31-1.472.31-.687 0-1.296-.157-1.826-.472a3.322 3.322 0 0 1 -1.237-1.34c-.295-.579-.442-1.241-.442-1.987 0-.737.147-1.385.442-1.944a3.22 3.22 0 0 1 1.237-1.325c.53-.315 1.139-.472 1.826-.472.549 0 1.035.108 1.458.324a2.7 2.7 0 0 1 1.045.913v-1.178zm-4.005 5.979c.619 0 1.119-.207 1.502-.619.393-.422.589-.967.589-1.634 0-.668-.196-1.208-.589-1.62-.383-.422-.883-.633-1.502-.633-.618 0-1.124.211-1.517.633-.382.422-.579.962-.589 1.62.01.667.207 1.212.589 1.634.393.412.899.619 1.517.619zm10.994-6.052c.903 0 1.615.274 2.135.824.52.54.78 1.276.78 2.209v4.918h-1.929v-4.358c0-.55-.157-.982-.471-1.296-.314-.324-.741-.486-1.281-.486-.638.01-1.144.226-1.517.648-.363.422-.544.962-.544 1.619v3.873h-1.915v-7.878h1.915v1.473c.54-1.011 1.482-1.527 2.827-1.546zm8.349.014c1.257 0 2.199.359 2.827 1.075.639.717.958 1.723.958 3.019 0 .255-.005.447-.015.574h-5.817c.128.56.388 1.001.781 1.325.402.315.893.472 1.472.472.403 0 .786-.074 1.149-.221.373-.157.697-.378.972-.663l1.031 1.075a3.965 3.965 0 0 1 -1.444 1.001c-.559.236-1.182.354-1.87.354-.805 0-1.516-.167-2.135-.501a3.523 3.523 0 0 1 -1.413-1.399c-.334-.608-.501-1.305-.501-2.091 0-.785.167-1.482.501-2.091a3.588 3.588 0 0 1 1.428-1.413c.609-.344 1.301-.516 2.076-.516zm2.032 3.387c-.019-.579-.211-1.04-.574-1.384s-.844-.515-1.443-.515c-.56 0-1.031.171-1.414.515-.373.334-.603.795-.692 1.384zm10.997-6.376v10.926h-1.914v-1.266c-.285.442-.653.78-1.105 1.016-.441.226-.957.339-1.546.339-.746 0-1.404-.167-1.973-.501a3.556 3.556 0 0 1 -1.311-1.428c-.314-.619-.471-1.326-.471-2.121 0-.785.152-1.477.457-2.076a3.446 3.446 0 0 1 1.31-1.414c.57-.334 1.218-.5 1.944-.5.599 0 1.124.117 1.576.353.451.236.824.574 1.119 1.016v-4.344zm-4.153 9.409c.658 0 1.193-.22 1.605-.662.423-.452.634-1.031.634-1.738s-.211-1.281-.634-1.723c-.412-.451-.947-.677-1.605-.677-.657 0-1.192.226-1.605.677-.412.442-.623 1.016-.633 1.723.01.707.221 1.286.633 1.738.413.442.948.662 1.605.662z" fill="#fff"/><g filter="url(#d)" opacity=".3"><rect fill="#566fa0" height="50.617" rx="25.309" width="115.04" x="490.773" y="51.538"/></g><rect fill="#3477f9" height="54.299" rx="22.088" width="137.127" x="479.729" y="38.653"/><path d="m527.176 72.14-1.781-3.049c-.079.01-.202.015-.369.015h-2.326v3.033h-1.973v-10.307h4.299c1.336 0 2.366.31 3.093.928.726.618 1.089 1.492 1.089 2.62 0 .806-.176 1.493-.53 2.062-.343.57-.849.997-1.516 1.281l2.267 3.416h-2.253zm-4.476-4.772h2.326c.747 0 1.316-.161 1.709-.486.392-.323.589-.804.589-1.443 0-.628-.197-1.099-.589-1.413-.393-.314-.962-.471-1.709-.471h-2.326zm11.878-3.165c1.257 0 2.199.358 2.827 1.075.638.716.957 1.722.957 3.018 0 .255-.005.447-.014.574h-5.817c.128.56.388 1.002.781 1.326.402.314.893.47 1.472.47a3.03 3.03 0 0 0 1.149-.22c.373-.157.697-.378.972-.663l1.03 1.075a3.96 3.96 0 0 1 -1.443 1.002 4.783 4.783 0 0 1 -1.87.353c-.805 0-1.517-.167-2.135-.5a3.526 3.526 0 0 1 -1.414-1.4c-.333-.608-.5-1.305-.5-2.09 0-.786.167-1.483.5-2.091.344-.61.82-1.08 1.429-1.414.608-.344 1.3-.515 2.076-.515zm2.032 3.386c-.02-.579-.211-1.04-.574-1.384-.363-.343-.844-.515-1.443-.515-.56 0-1.031.172-1.414.515-.373.334-.604.795-.692 1.384zm13.721-3.401c.893 0 1.595.275 2.106.825.51.54.765 1.276.765 2.208v4.918h-1.929v-4.358c0-.56-.157-.997-.471-1.31-.304-.325-.721-.487-1.252-.487-.608.02-1.094.24-1.457.663-.354.422-.53.957-.53 1.605v3.887h-1.929v-4.358c0-.56-.153-.997-.457-1.31-.304-.325-.721-.487-1.252-.487-.618.02-1.109.24-1.472.663-.353.422-.53.957-.53 1.605v3.887h-1.914v-7.877h1.914v1.457c.52-1.001 1.443-1.511 2.768-1.531.687 0 1.262.167 1.723.5.471.325.8.786.987 1.385.5-1.237 1.477-1.865 2.93-1.885zm8.452.015c.815 0 1.532.166 2.15.5a3.554 3.554 0 0 1 1.458 1.414c.353.599.53 1.29.53 2.076 0 .795-.177 1.497-.53 2.106a3.554 3.554 0 0 1 -1.458 1.413c-.618.334-1.335.501-2.15.501-.824 0-1.551-.167-2.179-.5a3.654 3.654 0 0 1 -1.473-1.414c-.343-.609-.515-1.31-.515-2.106 0-.785.172-1.477.515-2.076a3.654 3.654 0 0 1 1.473-1.414c.628-.334 1.355-.5 2.179-.5zm0 1.634c-.667 0-1.207.22-1.619.663-.413.441-.619 1.016-.619 1.722 0 .707.206 1.282.619 1.723.412.442.952.663 1.619.663.648 0 1.178-.22 1.591-.663.412-.441.618-1.016.618-1.722 0-.707-.206-1.282-.618-1.723-.413-.442-.943-.663-1.591-.663zm10.41 5.816a3.736 3.736 0 0 1 -1.973.575c-.678 0-1.232-.197-1.664-.59-.432-.402-.648-.99-.648-1.766v-3.888h-1.104l-.015-1.399h1.119v-2.164h1.899v2.164h2.253v1.4h-2.253v3.548c0 .363.069.623.207.78.137.148.343.221.618.221.295 0 .668-.108 1.119-.324l.442 1.444zm4.714-7.45c1.257 0 2.199.358 2.827 1.075.639.716.958 1.722.958 3.018 0 .255-.005.447-.015.574h-5.817c.128.56.388 1.002.781 1.326.402.314.893.47 1.472.47.403 0 .786-.073 1.149-.22.373-.157.697-.378.972-.663l1.031 1.075a3.978 3.978 0 0 1 -1.443 1.002 4.777 4.777 0 0 1 -1.871.353c-.805 0-1.516-.167-2.135-.5a3.523 3.523 0 0 1 -1.413-1.4c-.334-.608-.501-1.305-.501-2.09 0-.786.167-1.483.501-2.091a3.59 3.59 0 0 1 1.428-1.414c.609-.344 1.301-.515 2.076-.515zm2.032 3.386c-.019-.579-.211-1.04-.574-1.384-.363-.343-.844-.515-1.443-.515-.56 0-1.031.172-1.414.515-.373.334-.603.795-.692 1.384z" fill="#fff"/><g filter="url(#e)" opacity=".3"><rect fill="#566fa0" height="72.705" rx="36.353" width="150.012" x="259.773" y="215.354"/></g><rect fill="#3477f9" height="99.394" rx="22.088" width="179.462" x="245.048" y="185.904"/><path d="m277.83 210.003h8.408v1.752h-3.21v8.556h-1.988v-8.556h-3.21zm9.732 2.43h1.914v7.878h-1.914zm.942-3.387c.314 0 .574.108.78.324.207.216.31.491.31.824 0 .324-.103.594-.31.81a1.032 1.032 0 0 1 -.78.324c-.314 0-.574-.108-.78-.324a1.124 1.124 0 0 1 -.31-.81c0-.333.103-.608.31-.824.206-.216.466-.324.78-.324zm8.762 5.875c-.53-.579-1.218-.869-2.062-.869-.638 0-1.158.216-1.561.648-.392.432-.589.992-.589 1.679 0 .707.197 1.276.589 1.708.403.432.923.648 1.561.648.943 0 1.649-.309 2.121-.928l1.192.987c-.353.51-.819.903-1.399 1.178-.579.275-1.251.412-2.017.412-.775 0-1.468-.167-2.076-.5a3.558 3.558 0 0 1 -1.399-1.399c-.334-.609-.501-1.306-.501-2.091 0-.795.167-1.497.501-2.106a3.62 3.62 0 0 1 1.414-1.414c.608-.333 1.305-.5 2.09-.5.717 0 1.355.127 1.915.383a3.4 3.4 0 0 1 1.384 1.06zm8.223 5.39-2.135-3.446-1.208 1.266v2.18h-1.914v-10.926h1.914v6.331l3.24-3.269h2.209l-2.916 3.034 3.092 4.83zm6.48-7.937c1.257 0 2.199.358 2.828 1.075.638.716.957 1.722.957 3.018 0 .256-.005.447-.015.575h-5.816c.127.559.387 1.001.78 1.325.403.314.893.471 1.473.471.402 0 .785-.074 1.148-.221.373-.157.697-.378.972-.662l1.031 1.074a3.984 3.984 0 0 1 -1.443 1.002 4.787 4.787 0 0 1 -1.87.353c-.805 0-1.517-.167-2.136-.5a3.536 3.536 0 0 1 -1.413-1.399c-.334-.609-.501-1.306-.501-2.091 0-.786.167-1.483.501-2.091.343-.609.82-1.08 1.428-1.414.609-.343 1.301-.515 2.076-.515zm2.032 3.386c-.019-.579-.211-1.04-.574-1.384-.363-.343-.844-.515-1.443-.515-.559 0-1.031.172-1.413.515-.373.334-.604.795-.693 1.384zm8.008 4.065c-.628.382-1.286.574-1.973.574-.678 0-1.232-.196-1.664-.589-.432-.403-.648-.992-.648-1.767v-3.888h-1.104l-.015-1.398h1.119v-2.165h1.899v2.165h2.253v1.398h-2.253v3.549c0 .363.069.624.207.781.137.147.343.221.618.221.295 0 .668-.108 1.119-.324zm7.026-5.876c.265-.51.623-.898 1.075-1.163.461-.275.996-.417 1.605-.427v1.855c-.815-.049-1.468.143-1.958.575-.481.422-.722.996-.722 1.722v3.8h-1.914v-7.878h1.914zm7.308-1.575c1.257 0 2.199.358 2.828 1.075.638.716.957 1.722.957 3.018 0 .256-.005.447-.015.575h-5.816c.127.559.387 1.001.78 1.325.403.314.893.471 1.473.471.402 0 .785-.074 1.148-.221.373-.157.697-.378.972-.662l1.031 1.074a3.984 3.984 0 0 1 -1.443 1.002 4.787 4.787 0 0 1 -1.87.353c-.805 0-1.517-.167-2.135-.5a3.532 3.532 0 0 1 -1.414-1.399c-.334-.609-.501-1.306-.501-2.091 0-.786.167-1.483.501-2.091.344-.609.82-1.08 1.428-1.414.609-.343 1.301-.515 2.076-.515zm2.033 3.386c-.02-.579-.211-1.04-.575-1.384-.363-.343-.844-.515-1.443-.515-.559 0-1.031.172-1.413.515-.373.334-.604.795-.692 1.384zm1.917-3.313 2.003-.014 2.062 5.993 2.017-5.993h1.929l-3.004 7.878h-1.973zm9.117-.014h1.914v7.878h-1.914zm.942-3.387c.314 0 .575.108.781.324s.309.491.309.824c0 .324-.103.594-.309.81a1.034 1.034 0 0 1 -.781.324c-.314 0-.574-.108-.78-.324a1.127 1.127 0 0 1 -.309-.81c0-.333.103-.608.309-.824s.466-.324.78-.324zm6.627 3.328c1.256 0 2.199.358 2.827 1.075.638.716.957 1.722.957 3.018 0 .256-.005.447-.015.575h-5.816c.128.559.388 1.001.78 1.325.403.314.894.471 1.473.471.402 0 .785-.074 1.148-.221.374-.157.697-.378.972-.662l1.031 1.074a3.984 3.984 0 0 1 -1.443 1.002 4.787 4.787 0 0 1 -1.87.353c-.805 0-1.517-.167-2.135-.5a3.532 3.532 0 0 1 -1.414-1.399c-.334-.609-.5-1.306-.5-2.091 0-.786.166-1.483.5-2.091a3.6 3.6 0 0 1 1.429-1.414c.608-.343 1.3-.515 2.076-.515zm2.032 3.386c-.02-.579-.211-1.04-.574-1.384-.364-.343-.845-.515-1.444-.515-.559 0-1.03.172-1.413.515-.373.334-.604.795-.692 1.384zm1.918-3.313 1.973-.014 1.929 5.949 1.87-5.949h1.929l1.899 5.949 1.885-5.949h1.929l-2.856 7.878h-1.959l-1.885-5.552-1.87 5.552h-1.958zm17.548-.073c1.256 0 2.199.358 2.827 1.075.638.716.957 1.722.957 3.018 0 .256-.005.447-.015.575h-5.816c.128.559.388 1.001.78 1.325.403.314.894.471 1.473.471a3.04 3.04 0 0 0 1.149-.221c.373-.157.697-.378.971-.662l1.031 1.074a3.984 3.984 0 0 1 -1.443 1.002 4.783 4.783 0 0 1 -1.87.353c-.805 0-1.517-.167-2.135-.5a3.532 3.532 0 0 1 -1.414-1.399c-.334-.609-.5-1.306-.5-2.091 0-.786.166-1.483.5-2.091a3.6 3.6 0 0 1 1.429-1.414c.608-.343 1.3-.515 2.076-.515zm2.032 3.386c-.02-.579-.211-1.04-.574-1.384-.364-.343-.845-.515-1.443-.515-.56 0-1.031.172-1.414.515-.373.334-.604.795-.692 1.384zm10.997-6.375v10.926h-1.915v-1.267a2.877 2.877 0 0 1 -1.104 1.016c-.442.226-.957.339-1.546.339-.746 0-1.404-.167-1.973-.501a3.536 3.536 0 0 1 -1.311-1.428c-.314-.619-.471-1.325-.471-2.121 0-.785.152-1.477.456-2.076a3.44 3.44 0 0 1 1.311-1.413c.569-.334 1.217-.501 1.944-.501.598 0 1.124.118 1.575.353a3 3 0 0 1 1.119 1.016v-4.343zm-4.153 9.409c.658 0 1.193-.221 1.605-.663.422-.451.633-1.031.633-1.737 0-.707-.211-1.281-.633-1.723-.412-.452-.947-.678-1.605-.678s-1.193.226-1.605.678c-.412.442-.623 1.016-.633 1.723.01.706.221 1.286.633 1.737.412.442.947.663 1.605.663zm-95.105 11.591v10.926h-1.915v-1.267a2.87 2.87 0 0 1 -1.104 1.016c-.442.226-.957.339-1.546.339-.746 0-1.404-.167-1.973-.501a3.536 3.536 0 0 1 -1.311-1.428c-.314-.619-.471-1.325-.471-2.121 0-.785.152-1.477.457-2.076a3.444 3.444 0 0 1 1.31-1.413c.569-.334 1.217-.501 1.944-.501.599 0 1.124.118 1.575.353a3 3 0 0 1 1.119 1.016v-4.343zm-4.153 9.409c.658 0 1.193-.221 1.605-.663.422-.451.633-1.031.633-1.737 0-.707-.211-1.281-.633-1.723-.412-.452-.947-.678-1.605-.678-.657 0-1.192.226-1.605.678-.412.442-.623 1.016-.633 1.723.01.706.221 1.286.633 1.737.413.442.948.663 1.605.663zm9.89-6.42c1.256 0 2.199.358 2.827 1.075.638.716.957 1.722.957 3.018 0 .256-.005.447-.014.575h-5.817c.128.559.388 1.001.781 1.325.402.314.893.471 1.472.471.403 0 .785-.074 1.149-.221.373-.157.697-.378.971-.662l1.031 1.074a3.967 3.967 0 0 1 -1.443 1.002 4.783 4.783 0 0 1 -1.87.353c-.805 0-1.517-.167-2.135-.5a3.532 3.532 0 0 1 -1.414-1.399c-.333-.609-.5-1.306-.5-2.091 0-.786.167-1.483.5-2.091a3.6 3.6 0 0 1 1.429-1.414c.608-.343 1.3-.515 2.076-.515zm2.032 3.386c-.02-.579-.211-1.04-.574-1.384-.364-.343-.845-.515-1.443-.515-.56 0-1.031.172-1.414.515-.373.334-.604.795-.692 1.384zm8.037-3.386c.736 0 1.384.172 1.944.515a3.32 3.32 0 0 1 1.31 1.414c.314.608.471 1.31.471 2.105 0 .786-.152 1.478-.456 2.077a3.37 3.37 0 0 1 -1.296 1.399c-.56.333-1.207.5-1.944.5-.589 0-1.109-.113-1.561-.339a2.998 2.998 0 0 1 -1.119-1.016v4.138h-1.914v-10.734h1.914v1.295a2.809 2.809 0 0 1 1.09-1.001c.452-.235.972-.353 1.561-.353zm-.427 6.361c.648 0 1.178-.221 1.59-.663.412-.451.619-1.026.619-1.723 0-.696-.207-1.266-.619-1.708-.412-.441-.942-.662-1.59-.662-.658 0-1.193.221-1.605.662-.412.442-.619 1.012-.619 1.708 0 .707.207 1.282.619 1.723.412.442.947.663 1.605.663zm9.095-6.361c1.257 0 2.199.358 2.827 1.075.638.716.957 1.722.957 3.018 0 .256-.005.447-.014.575h-5.817c.128.559.388 1.001.781 1.325.402.314.893.471 1.472.471.403 0 .786-.074 1.149-.221.373-.157.697-.378.972-.662l1.03 1.074a3.967 3.967 0 0 1 -1.443 1.002 4.783 4.783 0 0 1 -1.87.353c-.805 0-1.516-.167-2.135-.5a3.532 3.532 0 0 1 -1.414-1.399c-.333-.609-.5-1.306-.5-2.091 0-.786.167-1.483.5-2.091a3.6 3.6 0 0 1 1.429-1.414c.608-.343 1.3-.515 2.076-.515zm2.032 3.386c-.02-.579-.211-1.04-.574-1.384-.363-.343-.844-.515-1.443-.515-.56 0-1.031.172-1.414.515-.373.334-.604.795-.692 1.384zm8.14-3.401c.903 0 1.615.275 2.135.825.52.54.781 1.276.781 2.208v4.919h-1.929v-4.359c0-.55-.157-.982-.472-1.296-.314-.324-.741-.486-1.281-.486-.638.01-1.143.226-1.516.648-.364.422-.545.962-.545 1.62v3.873h-1.914v-7.878h1.914v1.472c.54-1.011 1.482-1.526 2.827-1.546zm12.664-2.974v10.926h-1.914v-1.267a2.88 2.88 0 0 1 -1.105 1.016c-.442.226-.957.339-1.546.339-.746 0-1.404-.167-1.973-.501a3.543 3.543 0 0 1 -1.311-1.428c-.314-.619-.471-1.325-.471-2.121 0-.785.152-1.477.457-2.076a3.444 3.444 0 0 1 1.31-1.413c.57-.334 1.217-.501 1.944-.501.599 0 1.124.118 1.576.353.451.236.824.575 1.119 1.016v-4.343zm-4.153 9.409c.658 0 1.193-.221 1.605-.663.423-.451.634-1.031.634-1.737 0-.707-.211-1.281-.634-1.723-.412-.452-.947-.678-1.605-.678-.657 0-1.192.226-1.605.678-.412.442-.623 1.016-.633 1.723.01.706.221 1.286.633 1.737.413.442.948.663 1.605.663zm6.606-6.361h1.915v7.878h-1.915zm.943-3.387c.314 0 .574.108.78.324s.309.491.309.824c0 .324-.103.594-.309.81a1.032 1.032 0 0 1 -.78.324c-.314 0-.575-.108-.781-.324a1.127 1.127 0 0 1 -.309-.81c0-.333.103-.608.309-.824s.467-.324.781-.324zm8.084 3.313c.903 0 1.615.275 2.135.825.52.54.781 1.276.781 2.208v4.919h-1.929v-4.359c0-.55-.157-.982-.472-1.296-.314-.324-.741-.486-1.281-.486-.638.01-1.143.226-1.516.648-.364.422-.545.962-.545 1.62v3.873h-1.914v-7.878h1.914v1.472c.54-1.011 1.482-1.526 2.827-1.546zm12.266.074v7.127c0 .746-.172 1.394-.515 1.943-.334.56-.815.987-1.443 1.281-.619.305-1.34.457-2.165.457-1.197 0-2.307-.349-3.328-1.046l.766-1.384c.746.55 1.566.825 2.459.825.707 0 1.267-.182 1.679-.545.422-.363.633-.859.633-1.487v-.928a2.674 2.674 0 0 1 -1.031.928c-.422.206-.913.309-1.472.309-.687 0-1.296-.157-1.826-.471a3.328 3.328 0 0 1 -1.237-1.34c-.295-.579-.442-1.242-.442-1.988 0-.736.147-1.384.442-1.944a3.225 3.225 0 0 1 1.237-1.325c.53-.314 1.139-.471 1.826-.471.549 0 1.035.108 1.458.324.431.216.78.52 1.045.913v-1.178zm-4.005 5.978c.619 0 1.119-.206 1.502-.618.393-.423.589-.967.589-1.635 0-.667-.196-1.207-.589-1.62-.383-.422-.883-.633-1.502-.633-.618 0-1.124.211-1.517.633-.382.422-.579.962-.589 1.62.01.668.207 1.212.589 1.635.393.412.899.618 1.517.618zm13.307-6.037c.815 0 1.532.167 2.15.5a3.548 3.548 0 0 1 1.458 1.414c.353.599.53 1.291.53 2.076 0 .795-.177 1.497-.53 2.106a3.548 3.548 0 0 1 -1.458 1.414c-.618.333-1.335.5-2.15.5-.824 0-1.551-.167-2.179-.5a3.644 3.644 0 0 1 -1.472-1.414c-.344-.609-.516-1.311-.516-2.106 0-.785.172-1.477.516-2.076a3.644 3.644 0 0 1 1.472-1.414c.628-.333 1.355-.5 2.179-.5zm0 1.634c-.667 0-1.207.221-1.619.663-.413.442-.619 1.016-.619 1.723 0 .706.206 1.281.619 1.723.412.441.952.662 1.619.662.648 0 1.178-.221 1.591-.662.412-.442.618-1.017.618-1.723 0-.707-.206-1.281-.618-1.723-.413-.442-.943-.663-1.591-.663zm10.543-1.649c.903 0 1.614.275 2.135.825.52.54.78 1.276.78 2.208v4.919h-1.929v-4.359c0-.55-.157-.982-.471-1.296-.314-.324-.741-.486-1.281-.486-.638.01-1.144.226-1.517.648-.363.422-.545.962-.545 1.62v3.873h-1.914v-7.878h1.914v1.472c.54-1.011 1.483-1.526 2.828-1.546zm-83.192 28.466c-.628.382-1.286.574-1.973.574-.677 0-1.232-.196-1.664-.589-.432-.403-.648-.992-.648-1.767v-3.888h-1.104l-.015-1.398h1.119v-2.165h1.9v2.165h2.253v1.398h-2.253v3.549c0 .363.069.624.206.781.137.147.344.221.618.221.295 0 .668-.108 1.12-.324zm6.333-7.466c.903 0 1.614.275 2.135.825.52.54.78 1.276.78 2.208v4.919h-1.929v-4.359c0-.55-.157-.982-.471-1.296-.314-.324-.741-.486-1.281-.486-.638.01-1.144.226-1.517.648s-.559.962-.559 1.62v3.873h-1.915v-10.926h1.915v4.55c.54-1.031 1.487-1.556 2.842-1.576zm8.347.015c1.256 0 2.199.358 2.827 1.075.638.716.957 1.722.957 3.018 0 .256-.005.447-.014.575h-5.817c.128.559.388 1.001.781 1.325.402.314.893.471 1.472.471.403 0 .785-.074 1.149-.221.373-.157.697-.378.971-.662l1.031 1.074a3.967 3.967 0 0 1 -1.443 1.002 4.783 4.783 0 0 1 -1.87.353c-.805 0-1.517-.167-2.135-.5a3.532 3.532 0 0 1 -1.414-1.399c-.333-.609-.5-1.306-.5-2.091 0-.786.167-1.483.5-2.091a3.6 3.6 0 0 1 1.429-1.414c.608-.343 1.3-.515 2.076-.515zm2.032 3.386c-.02-.579-.211-1.04-.574-1.384-.364-.343-.845-.515-1.443-.515-.56 0-1.031.172-1.414.515-.373.334-.604.795-.692 1.384zm11.646-3.386c.737 0 1.384.172 1.944.515a3.328 3.328 0 0 1 1.311 1.414c.314.608.471 1.31.471 2.105 0 .786-.152 1.478-.457 2.077a3.37 3.37 0 0 1 -1.296 1.399c-.559.333-1.207.5-1.943.5-.589 0-1.11-.113-1.561-.339a2.983 2.983 0 0 1 -1.119-1.016v4.138h-1.915v-10.734h1.915v1.295a2.806 2.806 0 0 1 1.089-1.001c.452-.235.972-.353 1.561-.353zm-.427 6.361c.648 0 1.178-.221 1.591-.663.412-.451.618-1.026.618-1.723 0-.696-.206-1.266-.618-1.708-.413-.441-.943-.662-1.591-.662-.657 0-1.192.221-1.605.662-.412.442-.618 1.012-.618 1.708 0 .707.206 1.282.618 1.723.413.442.948.663 1.605.663zm7.726-4.786c.265-.51.623-.898 1.075-1.163.461-.275.996-.417 1.605-.427v1.855c-.815-.049-1.468.143-1.959.575-.481.422-.721.996-.721 1.722v3.8h-1.914v-7.878h1.914zm4.025-1.516h1.914v7.878h-1.914zm.942-3.387c.314 0 .574.108.78.324.207.216.31.491.31.824 0 .324-.103.594-.31.81a1.032 1.032 0 0 1 -.78.324c-.314 0-.574-.108-.78-.324a1.124 1.124 0 0 1 -.31-.81c0-.333.103-.608.31-.824.206-.216.466-.324.78-.324zm6.789 3.328c.814 0 1.531.167 2.149.5a3.542 3.542 0 0 1 1.458 1.414c.354.599.53 1.291.53 2.076 0 .795-.176 1.497-.53 2.106a3.542 3.542 0 0 1 -1.458 1.414c-.618.333-1.335.5-2.149.5-.825 0-1.551-.167-2.18-.5a3.644 3.644 0 0 1 -1.472-1.414c-.344-.609-.516-1.311-.516-2.106 0-.785.172-1.477.516-2.076a3.644 3.644 0 0 1 1.472-1.414c.629-.333 1.355-.5 2.18-.5zm0 1.634c-.668 0-1.208.221-1.62.663-.413.442-.619 1.016-.619 1.723 0 .706.206 1.281.619 1.723.412.441.952.662 1.62.662.647 0 1.178-.221 1.59-.662.412-.442.618-1.017.618-1.723 0-.707-.206-1.281-.618-1.723s-.943-.663-1.59-.663zm7.714-.059c.266-.51.624-.898 1.075-1.163.462-.275.997-.417 1.605-.427v1.855c-.814-.049-1.467.143-1.958.575-.481.422-.722.996-.722 1.722v3.8h-1.914v-7.878h1.914zm4.025-1.516h1.914v7.878h-1.914zm.943-3.387c.314 0 .574.108.78.324s.309.491.309.824c0 .324-.103.594-.309.81a1.032 1.032 0 0 1 -.78.324c-.315 0-.575-.108-.781-.324a1.127 1.127 0 0 1 -.309-.81c0-.333.103-.608.309-.824s.466-.324.781-.324zm7.951 10.779c-.628.382-1.286.574-1.973.574-.677 0-1.232-.196-1.664-.589-.432-.403-.648-.992-.648-1.767v-3.888h-1.104l-.015-1.398h1.119v-2.165h1.9v2.165h2.253v1.398h-2.253v3.549c0 .363.069.624.206.781.137.147.344.221.618.221.295 0 .668-.108 1.12-.324zm4.875 1.472c-.246.648-.599 1.134-1.06 1.458-.452.334-.992.501-1.62.501-.383 0-.731-.059-1.046-.177a3.146 3.146 0 0 1 -.912-.53l.824-1.458c.187.137.358.236.515.294.158.069.324.104.501.104.52 0 .903-.265 1.149-.796l.235-.515-3.254-7.745h1.988l2.238 5.728 2.047-5.728h1.929z" fill="#fff"/><g filter="url(#f)" opacity=".3"><rect fill="#566fa0" height="72.705" rx="36.353" width="150.012" x="470.526" y="389.295"/></g><rect fill="#3477f9" height="75.466" rx="22.088" width="179.462" x="455.801" y="376.41"/><path d="m502.423 399.478a7.433 7.433 0 0 0 -1.635-.751c-.55-.176-1.036-.265-1.458-.265-.471 0-.844.089-1.119.265a.832.832 0 0 0 -.412.737c0 .284.093.525.28.721.196.187.436.344.721.471.295.118.692.251 1.193.398.697.206 1.266.412 1.708.618.452.207.834.511 1.149.913.314.403.471.933.471 1.591 0 .628-.172 1.178-.516 1.649-.333.461-.8.815-1.398 1.06-.589.246-1.267.368-2.033.368-.805 0-1.59-.147-2.356-.441a6.82 6.82 0 0 1 -2.002-1.208l.824-1.679a6.05 6.05 0 0 0 1.753 1.134c.648.275 1.251.413 1.811.413.55 0 .982-.104 1.296-.31.314-.216.471-.505.471-.868a.95.95 0 0 0 -.295-.722 2.008 2.008 0 0 0 -.721-.471 13.257 13.257 0 0 0 -1.208-.398 14.36 14.36 0 0 1 -1.708-.603 3.013 3.013 0 0 1 -1.134-.884c-.314-.402-.471-.928-.471-1.576 0-.598.157-1.119.471-1.56.324-.452.776-.801 1.355-1.046.589-.245 1.267-.368 2.032-.368.668 0 1.326.098 1.973.294a6.689 6.689 0 0 1 1.753.796zm9.967-.22v7.877h-1.929v-1.457c-.53 1.021-1.443 1.531-2.738 1.531-.884 0-1.581-.27-2.091-.81-.511-.54-.766-1.276-.766-2.209v-4.932h1.929v4.373c0 .55.147.982.442 1.296.304.314.721.471 1.251.471.609-.01 1.09-.226 1.443-.648.354-.422.53-.957.53-1.605v-3.887zm7.028-.059c.736 0 1.384.171 1.944.515a3.32 3.32 0 0 1 1.31 1.414c.314.608.471 1.31.471 2.105 0 .786-.152 1.478-.456 2.077a3.361 3.361 0 0 1 -1.296 1.398c-.559.334-1.207.501-1.944.501-.589 0-1.109-.113-1.56-.339a2.993 2.993 0 0 1 -1.12-1.016v4.138h-1.914v-10.734h1.914v1.295a2.809 2.809 0 0 1 1.09-1.001c.452-.236.972-.353 1.561-.353zm-.427 6.361c.648 0 1.178-.221 1.59-.663.413-.451.619-1.026.619-1.723s-.206-1.266-.619-1.708c-.412-.441-.942-.662-1.59-.662-.658 0-1.193.221-1.605.662-.412.442-.619 1.011-.619 1.708 0 .707.207 1.282.619 1.723.412.442.947.663 1.605.663zm10.45-6.361c.736 0 1.384.171 1.944.515a3.32 3.32 0 0 1 1.31 1.414c.314.608.471 1.31.471 2.105 0 .786-.152 1.478-.456 2.077a3.368 3.368 0 0 1 -1.296 1.398c-.56.334-1.207.501-1.944.501-.589 0-1.109-.113-1.561-.339a2.998 2.998 0 0 1 -1.119-1.016v4.138h-1.914v-10.734h1.914v1.295a2.809 2.809 0 0 1 1.09-1.001c.452-.236.972-.353 1.561-.353zm-.427 6.361c.648 0 1.178-.221 1.59-.663.412-.451.619-1.026.619-1.723s-.207-1.266-.619-1.708c-.412-.441-.942-.662-1.59-.662-.658 0-1.193.221-1.605.662-.413.442-.619 1.011-.619 1.708 0 .707.206 1.282.619 1.723.412.442.947.663 1.605.663zm9.257-6.361c.815 0 1.531.167 2.15.5a3.554 3.554 0 0 1 1.458 1.414c.353.599.53 1.291.53 2.076 0 .795-.177 1.497-.53 2.106a3.552 3.552 0 0 1 -1.458 1.413c-.619.334-1.335.501-2.15.501-.825 0-1.551-.167-2.179-.501a3.638 3.638 0 0 1 -1.473-1.413c-.343-.609-.515-1.311-.515-2.106 0-.785.172-1.477.515-2.076a3.64 3.64 0 0 1 1.473-1.414c.628-.333 1.354-.5 2.179-.5zm0 1.634c-.668 0-1.208.221-1.62.663s-.618 1.016-.618 1.723c0 .706.206 1.281.618 1.722.412.442.952.663 1.62.663.648 0 1.178-.221 1.59-.663.413-.441.619-1.016.619-1.722 0-.707-.206-1.281-.619-1.723-.412-.442-.942-.663-1.59-.663zm7.715-.059c.265-.51.623-.898 1.075-1.163.461-.275.996-.417 1.605-.427v1.855c-.815-.049-1.468.143-1.959.575-.481.422-.721.996-.721 1.722v3.799h-1.914v-7.877h1.914zm8.633 5.876c-.628.382-1.286.574-1.973.574-.677 0-1.232-.196-1.664-.589-.432-.403-.648-.992-.648-1.767v-3.888h-1.104l-.015-1.398h1.119v-2.165h1.9v2.165h2.253v1.398h-2.253v3.549c0 .363.069.624.206.781.138.147.344.22.619.22.294 0 .667-.108 1.119-.323zm9.721 0c-.628.382-1.286.574-1.973.574-.677 0-1.232-.196-1.664-.589-.432-.403-.648-.992-.648-1.767v-3.888h-1.104l-.015-1.398h1.119v-2.165h1.9v2.165h2.253v1.398h-2.253v3.549c0 .363.069.624.206.781.137.147.344.22.618.22.295 0 .668-.108 1.12-.323zm4.715-7.451c1.256 0 2.199.358 2.827 1.075.638.716.957 1.722.957 3.018 0 .255-.005.447-.015.575h-5.816c.127.559.388 1.001.78 1.325.403.314.894.471 1.473.471.402 0 .785-.074 1.148-.221.373-.157.697-.378.972-.663l1.031 1.075a3.984 3.984 0 0 1 -1.443 1.002 4.787 4.787 0 0 1 -1.87.353c-.805 0-1.517-.167-2.135-.501a3.524 3.524 0 0 1 -1.414-1.398c-.334-.609-.501-1.306-.501-2.091 0-.786.167-1.483.501-2.091.344-.609.82-1.08 1.428-1.414.609-.344 1.301-.515 2.077-.515zm2.032 3.386c-.02-.579-.211-1.04-.575-1.384-.363-.343-.844-.515-1.443-.515-.559 0-1.03.172-1.413.515-.373.334-.604.795-.692 1.384zm8.051 4.55v-.957a2.581 2.581 0 0 1 -1.06.781c-.432.176-.928.265-1.487.265-.55 0-1.036-.103-1.458-.309a2.387 2.387 0 0 1 -.957-.884 2.368 2.368 0 0 1 -.339-1.252c0-.736.26-1.31.781-1.722.52-.422 1.256-.638 2.209-.648h2.297v-.206c0-.462-.153-.82-.457-1.075-.304-.256-.746-.383-1.325-.383-.746 0-1.527.245-2.341.736l-.692-1.325c.618-.344 1.178-.589 1.678-.736.511-.158 1.105-.236 1.782-.236 1.021 0 1.811.245 2.371.736.569.491.859 1.178.868 2.062l.015 5.153zm-2.091-1.384c.55 0 1.021-.127 1.414-.383.393-.265.614-.589.663-.971v-.707h-1.988c-.511 0-.889.078-1.134.235-.236.148-.353.393-.353.737 0 .333.122.599.368.795.255.196.598.294 1.03.294zm16.446-6.567c.893 0 1.595.275 2.106.825.51.539.765 1.276.765 2.208v4.918h-1.929v-4.358c0-.56-.157-.997-.471-1.311-.304-.324-.721-.486-1.251-.486-.609.02-1.095.241-1.458.663-.354.422-.53.957-.53 1.605v3.887h-1.929v-4.358c0-.56-.152-.997-.457-1.311-.304-.324-.721-.486-1.251-.486-.619.02-1.11.241-1.473.663-.353.422-.53.957-.53 1.605v3.887h-1.914v-7.877h1.914v1.457c.52-1.001 1.443-1.511 2.768-1.531.687 0 1.262.167 1.723.501.471.324.8.785.987 1.384.5-1.237 1.477-1.865 2.93-1.885zm-110.844 22.59c.265-.51.624-.898 1.075-1.163.462-.275.997-.417 1.605-.427v1.855c-.815-.049-1.467.143-1.958.575-.481.422-.722.996-.722 1.722v3.799h-1.914v-7.877h1.914zm7.309-1.575c1.256 0 2.199.358 2.827 1.075.638.716.957 1.722.957 3.018 0 .255-.005.447-.015.575h-5.816c.127.559.388 1.001.78 1.325.403.314.894.471 1.473.471.402 0 .785-.074 1.148-.221.373-.157.697-.378.972-.663l1.031 1.075a3.984 3.984 0 0 1 -1.443 1.002 4.787 4.787 0 0 1 -1.87.353c-.805 0-1.517-.167-2.135-.501a3.524 3.524 0 0 1 -1.414-1.398c-.334-.609-.501-1.306-.501-2.091 0-.786.167-1.483.501-2.091.344-.609.82-1.08 1.428-1.414.609-.344 1.301-.515 2.077-.515zm2.032 3.386c-.02-.579-.211-1.04-.575-1.384-.363-.343-.844-.515-1.443-.515-.559 0-1.03.172-1.413.515-.373.334-.604.795-.692 1.384zm8.066-1.192a5.553 5.553 0 0 0 -1.193-.53 3.705 3.705 0 0 0 -1.119-.192c-.324 0-.584.059-.78.177-.187.108-.28.28-.28.515 0 .246.118.437.353.575.246.127.629.265 1.149.412.55.167 1.001.334 1.355.5.353.158.657.398.913.722.265.314.397.731.397 1.252 0 .765-.294 1.354-.883 1.767-.589.412-1.331.618-2.224.618a5.772 5.772 0 0 1 -1.782-.28 4.282 4.282 0 0 1 -1.472-.824l.663-1.34c.353.304.775.545 1.266.721.491.167.957.251 1.399.251.353 0 .633-.059.839-.177a.613.613 0 0 0 .324-.56.666.666 0 0 0 -.368-.618c-.245-.138-.643-.29-1.193-.457-.53-.157-.962-.309-1.296-.456a2.45 2.45 0 0 1 -.868-.692c-.246-.314-.369-.722-.369-1.222 0-.776.28-1.365.84-1.767.569-.413 1.281-.619 2.135-.619.52 0 1.031.074 1.531.221.511.147.962.353 1.355.619zm5.882-2.194c.814 0 1.531.167 2.149.5a3.542 3.542 0 0 1 1.458 1.414c.354.599.53 1.291.53 2.076 0 .795-.176 1.497-.53 2.106a3.54 3.54 0 0 1 -1.458 1.413c-.618.334-1.335.501-2.149.501-.825 0-1.552-.167-2.18-.501a3.642 3.642 0 0 1 -1.472-1.413c-.344-.609-.516-1.311-.516-2.106 0-.785.172-1.477.516-2.076a3.644 3.644 0 0 1 1.472-1.414c.628-.333 1.355-.5 2.18-.5zm0 1.634c-.668 0-1.208.221-1.62.663-.413.442-.619 1.016-.619 1.723 0 .706.206 1.281.619 1.722.412.442.952.663 1.62.663.647 0 1.178-.221 1.59-.663.412-.441.618-1.016.618-1.722 0-.707-.206-1.281-.618-1.723s-.943-.663-1.59-.663zm5.874-4.624h1.914v10.926h-1.914zm3.162 3.063 2.003-.014 2.061 5.993 2.018-5.993h1.929l-3.004 7.877h-1.973zm12.127-.073c1.257 0 2.199.358 2.827 1.075.638.716.957 1.722.957 3.018 0 .255-.004.447-.014.575h-5.817c.128.559.388 1.001.781 1.325.402.314.893.471 1.472.471.403 0 .786-.074 1.149-.221.373-.157.697-.378.972-.663l1.03 1.075a3.967 3.967 0 0 1 -1.443 1.002 4.783 4.783 0 0 1 -1.87.353c-.805 0-1.516-.167-2.135-.501a3.524 3.524 0 0 1 -1.414-1.398c-.333-.609-.5-1.306-.5-2.091 0-.786.167-1.483.5-2.091a3.6 3.6 0 0 1 1.429-1.414c.608-.344 1.301-.515 2.076-.515zm2.032 3.386c-.02-.579-.211-1.04-.574-1.384-.363-.343-.844-.515-1.443-.515-.56 0-1.031.172-1.414.515-.373.334-.604.795-.692 1.384zm8.066-1.192a5.545 5.545 0 0 0 -1.192-.53 3.715 3.715 0 0 0 -1.119-.192c-.324 0-.584.059-.781.177-.186.108-.28.28-.28.515 0 .246.118.437.354.575.245.127.628.265 1.148.412.55.167 1.002.334 1.355.5.354.158.658.398.913.722.265.314.398.731.398 1.252 0 .765-.295 1.354-.884 1.767-.589.412-1.33.618-2.223.618a5.763 5.763 0 0 1 -1.782-.28 4.296 4.296 0 0 1 -1.473-.824l.663-1.34c.353.304.776.545 1.266.721.491.167.958.251 1.399.251.354 0 .633-.059.84-.177a.613.613 0 0 0 .324-.56.665.665 0 0 0 -.369-.618c-.245-.138-.643-.29-1.192-.457-.53-.157-.962-.309-1.296-.456a2.454 2.454 0 0 1 -.869-.692c-.245-.314-.368-.722-.368-1.222 0-.776.28-1.365.839-1.767.57-.413 1.281-.619 2.135-.619.521 0 1.031.074 1.532.221.51.147.962.353 1.355.619zm10.655 5.257c-.629.382-1.286.574-1.973.574-.678 0-1.232-.196-1.664-.589-.432-.403-.648-.992-.648-1.767v-3.888h-1.105l-.014-1.398h1.119v-2.165h1.899v2.165h2.253v1.398h-2.253v3.549c0 .363.069.624.206.781.138.147.344.22.619.22.294 0 .667-.108 1.119-.323zm6.332-7.466c.903 0 1.615.275 2.135.825.52.539.781 1.276.781 2.208v4.918h-1.929v-4.358c0-.55-.157-.982-.472-1.296-.314-.324-.741-.486-1.281-.486-.638.01-1.143.226-1.516.648s-.56.962-.56 1.62v3.872h-1.914v-10.926h1.914v4.551c.54-1.031 1.487-1.556 2.842-1.576zm8.347.015c1.257 0 2.199.358 2.828 1.075.638.716.957 1.722.957 3.018 0 .255-.005.447-.015.575h-5.816c.127.559.387 1.001.78 1.325.402.314.893.471 1.472.471.403 0 .786-.074 1.149-.221.373-.157.697-.378.972-.663l1.031 1.075a3.984 3.984 0 0 1 -1.443 1.002 4.787 4.787 0 0 1 -1.87.353c-.805 0-1.517-.167-2.136-.501a3.527 3.527 0 0 1 -1.413-1.398c-.334-.609-.501-1.306-.501-2.091 0-.786.167-1.483.501-2.091a3.59 3.59 0 0 1 1.428-1.414c.609-.344 1.301-.515 2.076-.515zm2.032 3.386c-.019-.579-.211-1.04-.574-1.384-.363-.343-.844-.515-1.443-.515-.559 0-1.031.172-1.414.515-.373.334-.603.795-.692 1.384zm11.617 4.065c-.628.382-1.286.574-1.973.574-.677 0-1.232-.196-1.664-.589-.432-.403-.648-.992-.648-1.767v-3.888h-1.104l-.015-1.398h1.119v-2.165h1.9v2.165h2.253v1.398h-2.253v3.549c0 .363.068.624.206.781.137.147.344.22.618.22.295 0 .668-.108 1.119-.323zm1.503-7.392h1.914v7.877h-1.914zm.942-3.387c.314 0 .574.108.781.324.206.216.309.491.309.824 0 .324-.103.594-.309.81a1.036 1.036 0 0 1 -.781.324c-.314 0-.574-.108-.78-.324a1.127 1.127 0 0 1 -.309-.81c0-.333.103-.608.309-.824s.466-.324.78-.324zm8.762 5.875c-.53-.579-1.217-.869-2.062-.869-.638 0-1.158.216-1.561.648-.392.432-.589.992-.589 1.679 0 .707.197 1.276.589 1.708.403.432.923.648 1.561.648.943 0 1.65-.309 2.121-.928l1.192.987c-.353.51-.819.903-1.398 1.178-.58.275-1.252.412-2.018.412-.775 0-1.467-.167-2.076-.501a3.55 3.55 0 0 1 -1.399-1.398c-.334-.609-.501-1.306-.501-2.091 0-.796.167-1.497.501-2.106a3.627 3.627 0 0 1 1.414-1.414c.608-.333 1.305-.5 2.091-.5.716 0 1.354.127 1.914.383a3.393 3.393 0 0 1 1.384 1.06zm8.223 5.389-2.135-3.445-1.207 1.266v2.179h-1.915v-10.926h1.915v6.332l3.239-3.269h2.209l-2.916 3.034 3.093 4.829zm6.481-7.936c1.256 0 2.199.358 2.827 1.075.638.716.957 1.722.957 3.018 0 .255-.005.447-.015.575h-5.816c.127.559.388 1.001.78 1.325.403.314.894.471 1.473.471.402 0 .785-.074 1.148-.221.373-.157.697-.378.972-.663l1.031 1.075a3.984 3.984 0 0 1 -1.443 1.002 4.787 4.787 0 0 1 -1.87.353c-.805 0-1.517-.167-2.135-.501a3.524 3.524 0 0 1 -1.414-1.398c-.334-.609-.501-1.306-.501-2.091 0-.786.167-1.483.501-2.091.344-.609.82-1.08 1.428-1.414.609-.344 1.301-.515 2.077-.515zm2.032 3.386c-.02-.579-.211-1.04-.575-1.384-.363-.343-.844-.515-1.443-.515-.559 0-1.03.172-1.413.515-.373.334-.604.795-.692 1.384zm8.007 4.065c-.628.382-1.286.574-1.973.574-.677 0-1.232-.196-1.664-.589-.432-.403-.648-.992-.648-1.767v-3.888h-1.104l-.015-1.398h1.119v-2.165h1.9v2.165h2.253v1.398h-2.253v3.549c0 .363.068.624.206.781.137.147.343.22.618.22.295 0 .668-.108 1.119-.323z" fill="#fff"/><g filter="url(#g)" opacity=".3"><rect fill="#566fa0" height="64.422" rx="32.211" width="150.012" x="665.634" y="220.876"/></g><rect fill="#3477f9" height="79.147" rx="22.088" width="199.709" x="640.785" y="194.187"/><path d="m670.59 218.286h8.408v1.752h-3.21v8.556h-1.988v-8.556h-3.21zm9.732 2.43h1.914v7.878h-1.914zm.942-3.387c.315 0 .575.108.781.324s.309.491.309.825c0 .324-.103.594-.309.809a1.033 1.033 0 0 1 -.781.324c-.314 0-.574-.108-.78-.324a1.123 1.123 0 0 1 -.309-.809c0-.334.103-.609.309-.825s.466-.324.78-.324zm8.762 5.875c-.53-.579-1.217-.868-2.061-.868-.638 0-1.159.216-1.561.647-.393.432-.589.992-.589 1.679 0 .707.196 1.276.589 1.708.402.432.923.648 1.561.648.942 0 1.649-.309 2.12-.928l1.193.987c-.354.511-.82.903-1.399 1.178s-1.252.412-2.017.412c-.776 0-1.468-.167-2.077-.5a3.552 3.552 0 0 1 -1.399-1.399c-.333-.609-.5-1.306-.5-2.091 0-.795.167-1.497.5-2.106a3.624 3.624 0 0 1 1.414-1.413c.609-.334 1.306-.501 2.091-.501.717 0 1.355.128 1.914.383.57.245 1.031.599 1.384 1.06zm8.223 5.39-2.135-3.446-1.207 1.266v2.18h-1.914v-10.926h1.914v6.332l3.239-3.269h2.209l-2.915 3.033 3.092 4.83zm6.481-7.937c1.256 0 2.199.358 2.827 1.075.638.716.957 1.723.957 3.018 0 .256-.005.447-.014.575h-5.817c.128.559.388 1.001.781 1.325.402.314.893.471 1.472.471.403 0 .785-.073 1.149-.221.373-.157.697-.378.971-.662l1.031 1.075a3.965 3.965 0 0 1 -1.443 1.001c-.559.236-1.183.353-1.87.353-.805 0-1.517-.167-2.135-.5a3.526 3.526 0 0 1 -1.414-1.399c-.333-.609-.5-1.306-.5-2.091s.167-1.482.5-2.091a3.6 3.6 0 0 1 1.429-1.414c.608-.343 1.3-.515 2.076-.515zm2.032 3.387c-.02-.579-.211-1.041-.574-1.384-.364-.344-.845-.516-1.443-.516-.56 0-1.031.172-1.414.516-.373.333-.604.795-.692 1.384zm8.007 4.064a3.734 3.734 0 0 1 -1.973.574c-.677 0-1.232-.196-1.664-.589-.432-.402-.648-.991-.648-1.767v-3.887h-1.104l-.015-1.399h1.119v-2.165h1.9v2.165h2.253v1.399h-2.253v3.548c0 .364.069.624.206.781.138.147.344.221.619.221.294 0 .667-.108 1.119-.324zm5.112-7.392h1.915v7.878h-1.915zm.943-3.387c.314 0 .574.108.78.324s.309.491.309.825c0 .324-.103.594-.309.809a1.032 1.032 0 0 1 -.78.324c-.314 0-.575-.108-.781-.324a1.123 1.123 0 0 1 -.309-.809c0-.334.103-.609.309-.825s.467-.324.781-.324zm8.01 5.522a5.545 5.545 0 0 0 -1.192-.53 3.715 3.715 0 0 0 -1.119-.192c-.324 0-.584.059-.781.177-.186.108-.28.28-.28.516 0 .245.118.436.354.574.245.127.628.265 1.148.412.55.167 1.002.334 1.355.501.353.157.658.397.913.721.265.314.398.732.398 1.252 0 .766-.295 1.355-.884 1.767s-1.33.618-2.223.618a5.791 5.791 0 0 1 -1.782-.279 4.314 4.314 0 0 1 -1.473-.825l.663-1.34c.353.304.776.545 1.266.722.491.166.957.25 1.399.25.354 0 .633-.059.84-.177a.612.612 0 0 0 .324-.559.668.668 0 0 0 -.369-.619c-.245-.137-.643-.289-1.192-.456-.53-.157-.962-.31-1.296-.457a2.445 2.445 0 0 1 -.869-.692c-.245-.314-.368-.721-.368-1.222 0-.776.28-1.365.839-1.767.57-.412 1.281-.619 2.135-.619.521 0 1.031.074 1.532.221.51.148.962.354 1.355.619zm10.714 0a5.574 5.574 0 0 0 -1.193-.53 3.715 3.715 0 0 0 -1.119-.192c-.324 0-.584.059-.781.177-.186.108-.28.28-.28.516 0 .245.118.436.354.574.245.127.628.265 1.148.412.55.167 1.002.334 1.355.501.354.157.658.397.913.721.265.314.398.732.398 1.252 0 .766-.295 1.355-.884 1.767s-1.33.618-2.223.618a5.791 5.791 0 0 1 -1.782-.279 4.314 4.314 0 0 1 -1.473-.825l.663-1.34c.353.304.776.545 1.266.722.491.166.958.25 1.399.25.354 0 .634-.059.84-.177a.612.612 0 0 0 .324-.559.668.668 0 0 0 -.369-.619c-.245-.137-.643-.289-1.192-.456-.53-.157-.962-.31-1.296-.457a2.454 2.454 0 0 1 -.869-.692c-.245-.314-.368-.721-.368-1.222 0-.776.28-1.365.839-1.767.57-.412 1.281-.619 2.136-.619.52 0 1.03.074 1.531.221.51.148.962.354 1.355.619zm5.719-2.194c1.257 0 2.199.358 2.827 1.075.638.716.957 1.723.957 3.018 0 .256-.004.447-.014.575h-5.817c.128.559.388 1.001.781 1.325.402.314.893.471 1.472.471.403 0 .786-.073 1.149-.221.373-.157.697-.378.972-.662l1.03 1.075a3.965 3.965 0 0 1 -1.443 1.001c-.559.236-1.183.353-1.87.353-.805 0-1.516-.167-2.135-.5a3.517 3.517 0 0 1 -1.413-1.399c-.334-.609-.501-1.306-.501-2.091s.167-1.482.501-2.091a3.59 3.59 0 0 1 1.428-1.414c.608-.343 1.301-.515 2.076-.515zm2.032 3.387c-.019-.579-.211-1.041-.574-1.384-.363-.344-.844-.516-1.443-.516-.56 0-1.031.172-1.414.516-.373.333-.604.795-.692 1.384zm8.14-3.402c.903 0 1.615.275 2.135.825.521.54.781 1.276.781 2.209v4.918h-1.929v-4.359c0-.55-.157-.982-.471-1.296-.315-.324-.742-.486-1.282-.486-.638.01-1.143.226-1.516.648-.363.422-.545.962-.545 1.62v3.873h-1.914v-7.878h1.914v1.472c.54-1.011 1.482-1.526 2.827-1.546zm9.675 7.466c-.629.383-1.286.574-1.973.574-.678 0-1.232-.196-1.664-.589-.432-.402-.648-.991-.648-1.767v-3.887h-1.105l-.014-1.399h1.119v-2.165h1.899v2.165h2.253v1.399h-2.253v3.548c0 .364.069.624.206.781.138.147.344.221.619.221.294 0 .667-.108 1.119-.324zm9.721 0a3.737 3.737 0 0 1 -1.974.574c-.677 0-1.232-.196-1.663-.589-.432-.402-.648-.991-.648-1.767v-3.887h-1.105l-.014-1.399h1.119v-2.165h1.899v2.165h2.253v1.399h-2.253v3.548c0 .364.069.624.206.781.138.147.344.221.619.221.294 0 .667-.108 1.119-.324zm4.876-7.451c.815 0 1.531.167 2.15.501a3.552 3.552 0 0 1 1.458 1.413c.353.599.53 1.291.53 2.076 0 .796-.177 1.497-.53 2.106a3.554 3.554 0 0 1 -1.458 1.414c-.619.333-1.335.5-2.15.5-.825 0-1.551-.167-2.179-.5a3.647 3.647 0 0 1 -1.473-1.414c-.343-.609-.515-1.31-.515-2.106 0-.785.172-1.477.515-2.076a3.645 3.645 0 0 1 1.473-1.413c.628-.334 1.354-.501 2.179-.501zm0 1.634c-.668 0-1.208.221-1.62.663s-.618 1.016-.618 1.723.206 1.281.618 1.723c.412.441.952.662 1.62.662.648 0 1.178-.221 1.59-.662.413-.442.619-1.016.619-1.723s-.206-1.281-.619-1.723c-.412-.442-.942-.663-1.59-.663zm14.019 5.817a3.734 3.734 0 0 1 -1.973.574c-.678 0-1.232-.196-1.664-.589-.432-.402-.648-.991-.648-1.767v-3.887h-1.104l-.015-1.399h1.119v-2.165h1.899v2.165h2.253v1.399h-2.253v3.548c0 .364.069.624.207.781.137.147.343.221.618.221.295 0 .668-.108 1.119-.324zm6.332-7.466c.903 0 1.615.275 2.135.825.521.54.781 1.276.781 2.209v4.918h-1.929v-4.359c0-.55-.157-.982-.471-1.296-.314-.324-.741-.486-1.281-.486-.638.01-1.144.226-1.517.648s-.56.962-.56 1.62v3.873h-1.914v-10.926h1.914v4.55c.54-1.031 1.488-1.556 2.842-1.576zm8.348.015c1.256 0 2.199.358 2.827 1.075.638.716.957 1.723.957 3.018 0 .256-.005.447-.015.575h-5.816c.127.559.388 1.001.78 1.325.403.314.894.471 1.473.471.402 0 .785-.073 1.148-.221.373-.157.697-.378.972-.662l1.031 1.075a3.982 3.982 0 0 1 -1.443 1.001c-.56.236-1.183.353-1.87.353-.805 0-1.517-.167-2.135-.5a3.526 3.526 0 0 1 -1.414-1.399c-.334-.609-.501-1.306-.501-2.091s.167-1.482.501-2.091c.344-.609.82-1.08 1.428-1.414.609-.343 1.301-.515 2.077-.515zm2.032 3.387c-.02-.579-.211-1.041-.575-1.384-.363-.344-.844-.516-1.443-.516-.559 0-1.03.172-1.413.516-.373.333-.604.795-.692 1.384zm-130.079 17.613c1.257 0 2.199.358 2.827 1.075.638.716.957 1.723.957 3.018 0 .256-.005.447-.014.575h-5.817c.128.559.388 1.001.781 1.325.402.314.893.471 1.472.471.403 0 .786-.073 1.149-.221.373-.157.697-.378.972-.662l1.03 1.075a3.965 3.965 0 0 1 -1.443 1.001c-.559.236-1.183.353-1.87.353-.805 0-1.516-.167-2.135-.5a3.526 3.526 0 0 1 -1.414-1.399c-.333-.609-.5-1.306-.5-2.091s.167-1.482.5-2.091a3.6 3.6 0 0 1 1.429-1.414c.608-.343 1.301-.515 2.076-.515zm2.032 3.387c-.02-.579-.211-1.041-.574-1.384-.363-.344-.844-.516-1.443-.516-.56 0-1.031.172-1.414.516-.373.333-.604.795-.692 1.384zm8.14-3.402c.903 0 1.615.275 2.135.825.521.54.781 1.276.781 2.209v4.918h-1.929v-4.359c0-.55-.157-.982-.472-1.296-.314-.324-.741-.486-1.281-.486-.638.01-1.143.226-1.516.648-.364.422-.545.962-.545 1.62v3.873h-1.914v-7.878h1.914v1.472c.54-1.011 1.482-1.526 2.827-1.546zm12.266.074v7.127c0 .746-.171 1.394-.515 1.943-.334.56-.815.987-1.443 1.282-.619.304-1.34.456-2.165.456-1.197 0-2.307-.348-3.328-1.045l.766-1.385c.746.55 1.566.825 2.459.825.707 0 1.267-.182 1.679-.545.422-.363.633-.859.633-1.487v-.928a2.674 2.674 0 0 1 -1.031.928c-.422.206-.913.309-1.472.309-.687 0-1.296-.157-1.826-.471a3.328 3.328 0 0 1 -1.237-1.34c-.295-.579-.442-1.242-.442-1.988 0-.736.147-1.384.442-1.944a3.225 3.225 0 0 1 1.237-1.325c.53-.314 1.139-.471 1.826-.471.55 0 1.035.108 1.458.324.432.216.78.52 1.045.913v-1.178zm-4.005 5.978c.619 0 1.119-.206 1.502-.618.393-.422.589-.967.589-1.635 0-.667-.196-1.207-.589-1.619-.383-.423-.883-.634-1.502-.634-.618 0-1.124.211-1.517.634-.382.422-.579.962-.589 1.619.01.668.207 1.213.589 1.635.393.412.899.618 1.517.618zm6.252-5.978h1.915v7.878h-1.915zm.943-3.387c.314 0 .574.108.78.324s.309.491.309.825c0 .324-.103.594-.309.809a1.032 1.032 0 0 1 -.78.324c-.314 0-.574-.108-.781-.324a1.123 1.123 0 0 1 -.309-.809c0-.334.103-.609.309-.825.207-.216.467-.324.781-.324zm8.084 3.313c.903 0 1.615.275 2.135.825.521.54.781 1.276.781 2.209v4.918h-1.929v-4.359c0-.55-.157-.982-.471-1.296-.315-.324-.742-.486-1.282-.486-.638.01-1.143.226-1.516.648-.363.422-.545.962-.545 1.62v3.873h-1.914v-7.878h1.914v1.472c.54-1.011 1.482-1.526 2.827-1.546zm8.349.015c1.257 0 2.199.358 2.828 1.075.638.716.957 1.723.957 3.018 0 .256-.005.447-.015.575h-5.816c.127.559.387 1.001.78 1.325.403.314.893.471 1.473.471.402 0 .785-.073 1.148-.221.373-.157.697-.378.972-.662l1.031 1.075a3.982 3.982 0 0 1 -1.443 1.001c-.56.236-1.183.353-1.87.353-.805 0-1.517-.167-2.135-.5a3.526 3.526 0 0 1 -1.414-1.399c-.334-.609-.501-1.306-.501-2.091s.167-1.482.501-2.091c.344-.609.82-1.08 1.428-1.414.609-.343 1.301-.515 2.076-.515zm2.033 3.387c-.02-.579-.212-1.041-.575-1.384-.363-.344-.844-.516-1.443-.516-.559 0-1.031.172-1.413.516-.373.333-.604.795-.692 1.384zm6.682-3.387c1.256 0 2.199.358 2.827 1.075.638.716.957 1.723.957 3.018 0 .256-.005.447-.015.575h-5.816c.128.559.388 1.001.78 1.325.403.314.894.471 1.473.471.402 0 .785-.073 1.148-.221.373-.157.697-.378.972-.662l1.031 1.075a3.982 3.982 0 0 1 -1.443 1.001c-.56.236-1.183.353-1.87.353-.805 0-1.517-.167-2.135-.5a3.526 3.526 0 0 1 -1.414-1.399c-.334-.609-.5-1.306-.5-2.091s.166-1.482.5-2.091a3.6 3.6 0 0 1 1.429-1.414c.608-.343 1.3-.515 2.076-.515zm2.032 3.387c-.02-.579-.211-1.041-.574-1.384-.364-.344-.845-.516-1.444-.516-.559 0-1.03.172-1.413.516-.373.333-.604.795-.692 1.384zm5.313-1.811c.265-.511.623-.899 1.075-1.164.461-.275.996-.417 1.605-.427v1.856c-.815-.05-1.468.142-1.959.574-.481.422-.721.996-.721 1.723v3.799h-1.915v-7.878h1.915zm4.024-1.517h1.915v7.878h-1.915zm.943-3.387c.314 0 .574.108.78.324s.309.491.309.825c0 .324-.103.594-.309.809a1.032 1.032 0 0 1 -.78.324c-.314 0-.575-.108-.781-.324a1.123 1.123 0 0 1 -.309-.809c0-.334.103-.609.309-.825s.467-.324.781-.324zm8.084 3.313c.903 0 1.615.275 2.135.825.52.54.781 1.276.781 2.209v4.918h-1.929v-4.359c0-.55-.158-.982-.472-1.296-.314-.324-.741-.486-1.281-.486-.638.01-1.143.226-1.516.648-.364.422-.545.962-.545 1.62v3.873h-1.915v-7.878h1.915v1.472c.54-1.011 1.482-1.526 2.827-1.546zm12.266.074v7.127c0 .746-.172 1.394-.515 1.943-.334.56-.815.987-1.443 1.282-.619.304-1.34.456-2.165.456-1.197 0-2.307-.348-3.328-1.045l.766-1.385c.746.55 1.566.825 2.459.825.707 0 1.266-.182 1.679-.545.422-.363.633-.859.633-1.487v-.928a2.674 2.674 0 0 1 -1.031.928c-.422.206-.913.309-1.472.309-.687 0-1.296-.157-1.826-.471a3.328 3.328 0 0 1 -1.237-1.34c-.295-.579-.442-1.242-.442-1.988 0-.736.147-1.384.442-1.944a3.225 3.225 0 0 1 1.237-1.325c.53-.314 1.139-.471 1.826-.471.549 0 1.035.108 1.457.324.432.216.781.52 1.046.913v-1.178zm-4.005 5.978c.618 0 1.119-.206 1.502-.618.393-.422.589-.967.589-1.635 0-.667-.196-1.207-.589-1.619-.383-.423-.884-.634-1.502-.634s-1.124.211-1.517.634c-.383.422-.579.962-.589 1.619.01.668.206 1.213.589 1.635.393.412.899.618 1.517.618zm14.471 1.414a3.737 3.737 0 0 1 -1.974.574c-.677 0-1.232-.196-1.663-.589-.432-.402-.648-.991-.648-1.767v-3.887h-1.105l-.014-1.399h1.119v-2.165h1.899v2.165h2.253v1.399h-2.253v3.548c0 .364.069.624.206.781.138.147.344.221.619.221.294 0 .667-.108 1.119-.324zm4.714-7.451c1.256 0 2.199.358 2.827 1.075.638.716.957 1.723.957 3.018 0 .256-.005.447-.014.575h-5.817c.128.559.388 1.001.781 1.325.402.314.893.471 1.472.471.403 0 .785-.073 1.149-.221.373-.157.697-.378.972-.662l1.03 1.075a3.965 3.965 0 0 1 -1.443 1.001c-.559.236-1.183.353-1.87.353-.805 0-1.517-.167-2.135-.5a3.526 3.526 0 0 1 -1.414-1.399c-.333-.609-.5-1.306-.5-2.091s.167-1.482.5-2.091a3.6 3.6 0 0 1 1.429-1.414c.608-.343 1.3-.515 2.076-.515zm2.032 3.387c-.02-.579-.211-1.041-.574-1.384-.363-.344-.844-.516-1.443-.516-.56 0-1.031.172-1.414.516-.373.333-.604.795-.692 1.384zm8.052 4.55v-.957a2.591 2.591 0 0 1 -1.061.78c-.431.177-.927.265-1.487.265-.55 0-1.035-.103-1.458-.309a2.387 2.387 0 0 1 -.957-.884 2.375 2.375 0 0 1 -.338-1.251c0-.737.26-1.311.78-1.723.52-.422 1.257-.638 2.209-.648h2.297v-.206c0-.462-.152-.82-.457-1.075-.304-.255-.746-.383-1.325-.383-.746 0-1.526.245-2.341.736l-.692-1.325c.618-.344 1.178-.589 1.678-.736.511-.157 1.105-.236 1.782-.236 1.021 0 1.811.246 2.371.736.569.491.859 1.178.869 2.062l.014 5.154zm-2.091-1.384c.549 0 1.021-.128 1.413-.383.393-.265.614-.589.663-.972v-.707h-1.988c-.51 0-.888.079-1.134.236-.235.147-.353.392-.353.736 0 .334.123.599.368.795.255.196.599.295 1.031.295zm16.445-6.568c.894 0 1.596.275 2.106.825.51.54.766 1.276.766 2.209v4.918h-1.929v-4.359c0-.559-.157-.996-.471-1.31-.305-.324-.722-.486-1.252-.486-.609.019-1.095.24-1.458.662-.353.422-.53.957-.53 1.605v3.888h-1.929v-4.359c0-.559-.152-.996-.456-1.31-.305-.324-.722-.486-1.252-.486-.619.019-1.109.24-1.473.662-.353.422-.53.957-.53 1.605v3.888h-1.914v-7.878h1.914v1.458c.521-1.002 1.443-1.512 2.769-1.532.687 0 1.261.167 1.722.501.472.324.801.785.987 1.384.501-1.237 1.477-1.865 2.93-1.885z" fill="#fff"/><g filter="url(#h)" opacity=".3"><rect fill="#566fa0" height="90.593" rx="36.353" transform="matrix(.70710678 -.70710678 .70710678 .70710678 -41.64606 416.589516)" width="95.773" x="482.045" y="258.566"/></g><rect fill="url(#k)" height="108.598" rx="14.725" transform="matrix(.70710678 -.70710678 .70710678 .70710678 -28.225404 401.487847)" width="109.518" x="470.526" y="234.815"/><path d="m496.406 224.169h2.22v11.596h-2.22zm10.315 2.651c1.016 0 1.817.309 2.402.927.585.608.878 1.436.878 2.485v5.533h-2.17v-4.903c0-.619-.177-1.105-.53-1.458-.353-.365-.834-.547-1.441-.547-.718.011-1.287.254-1.707.729-.408.475-.613 1.082-.613 1.822v4.357h-2.153v-8.863h2.153v1.657c.608-1.137 1.668-1.717 3.181-1.739zm4.114.099 2.253-.017 2.319 6.743 2.27-6.743h2.17l-3.38 8.863h-2.219zm13.643-.083c1.414 0 2.474.403 3.181 1.21.717.806 1.076 1.938 1.076 3.395 0 .288-.005.503-.016.647h-6.544c.144.629.436 1.126.878 1.49.453.354 1.005.531 1.657.531a3.4 3.4 0 0 0 1.292-.249c.42-.177.784-.425 1.093-.745l1.16 1.209a4.467 4.467 0 0 1 -1.624 1.126c-.629.265-1.33.398-2.103.398-.906 0-1.707-.188-2.402-.563a3.97 3.97 0 0 1 -1.591-1.574c-.375-.685-.563-1.469-.563-2.352 0-.884.188-1.668.563-2.353a4.05 4.05 0 0 1 1.607-1.59c.685-.387 1.463-.58 2.336-.58zm2.286 3.81c-.022-.651-.237-1.17-.646-1.557-.409-.386-.95-.58-1.624-.58-.629 0-1.159.194-1.59.58-.42.376-.679.895-.778 1.557zm9.075-1.342a6.33 6.33 0 0 0 -1.342-.596 4.206 4.206 0 0 0 -1.259-.215c-.365 0-.657.066-.878.199-.21.121-.315.314-.315.579 0 .276.133.492.398.646.276.144.706.299 1.292.464.618.188 1.126.376 1.524.564.397.176.74.447 1.027.811.298.354.447.823.447 1.408 0 .862-.331 1.524-.994 1.988-.662.464-1.496.696-2.501.696a6.5 6.5 0 0 1 -2.005-.315c-.651-.221-1.203-.53-1.656-.927l.745-1.508c.398.342.873.613 1.425.812a4.883 4.883 0 0 0 1.574.281c.397 0 .712-.066.944-.198a.69.69 0 0 0 .364-.63.751.751 0 0 0 -.414-.696c-.276-.154-.723-.325-1.342-.513a12.478 12.478 0 0 1 -1.457-.514 2.745 2.745 0 0 1 -.978-.778c-.276-.354-.414-.812-.414-1.375 0-.873.315-1.535.944-1.988.641-.464 1.442-.696 2.402-.696.586 0 1.16.083 1.723.249a5.349 5.349 0 0 1 1.524.695zm7.925 5.914c-.707.431-1.447.647-2.22.647-.762 0-1.386-.221-1.872-.663-.486-.453-.729-1.116-.729-1.988v-4.373h-1.242l-.017-1.574h1.259v-2.435h2.137v2.435h2.535v1.574h-2.535v3.992c0 .409.078.701.232.878.155.166.387.248.696.248.331 0 .751-.121 1.259-.364zm1.69-8.316h2.154v8.863h-2.154zm1.061-3.81c.353 0 .646.122.878.365s.347.552.347.927c0 .365-.115.669-.347.912a1.162 1.162 0 0 1 -.878.364c-.354 0-.646-.121-.878-.364a1.269 1.269 0 0 1 -.348-.912c0-.375.116-.684.348-.927s.524-.365.878-.365zm11.861 3.81v8.018c0 .84-.193 1.569-.58 2.187-.375.629-.917 1.11-1.623 1.441-.696.343-1.508.514-2.435.514-1.348 0-2.596-.392-3.744-1.176l.861-1.558c.839.619 1.762.928 2.767.928.795 0 1.424-.204 1.888-.613.475-.409.712-.966.712-1.673v-1.044a3.006 3.006 0 0 1 -1.159 1.044c-.475.232-1.027.348-1.657.348-.773 0-1.458-.177-2.054-.53a3.745 3.745 0 0 1 -1.391-1.508c-.332-.651-.497-1.397-.497-2.236 0-.828.165-1.557.497-2.187a3.637 3.637 0 0 1 1.391-1.491c.596-.353 1.281-.53 2.054-.53.619 0 1.165.122 1.64.365.486.243.878.585 1.176 1.027v-1.326zm-4.506 6.726c.696 0 1.259-.232 1.69-.696.442-.474.662-1.087.662-1.838s-.22-1.359-.662-1.823c-.431-.475-.994-.712-1.69-.712s-1.264.237-1.706.712c-.431.475-.652 1.083-.663 1.823.011.751.232 1.364.663 1.838.442.464 1.01.696 1.706.696zm12.269 2.137v-1.077c-.31.387-.707.68-1.193.878-.486.199-1.044.299-1.673.299-.619 0-1.165-.116-1.64-.348a2.685 2.685 0 0 1 -1.077-.994 2.667 2.667 0 0 1 -.381-1.408c0-.829.293-1.475.878-1.939.585-.474 1.414-.717 2.485-.728h2.584v-.232c0-.519-.171-.923-.513-1.21-.343-.287-.84-.43-1.491-.43-.84 0-1.718.276-2.634.828l-.779-1.491c.696-.387 1.325-.663 1.889-.828.574-.177 1.242-.265 2.004-.265 1.149 0 2.038.276 2.667.828.641.552.966 1.325.978 2.319l.016 5.798zm-2.353-1.557c.619 0 1.149-.144 1.591-.431.441-.298.69-.662.745-1.093v-.795h-2.236c-.575 0-1 .088-1.276.265-.265.165-.397.442-.397.828 0 .376.138.674.414.895.287.221.673.331 1.159.331zm12.074 1.01c-.707.431-1.447.647-2.22.647-.762 0-1.386-.221-1.872-.663-.486-.453-.728-1.116-.728-1.988v-4.373h-1.243l-.016-1.574h1.259v-2.435h2.137v2.435h2.534v1.574h-2.534v3.992c0 .409.077.701.231.878.155.166.387.248.696.248.331 0 .751-.121 1.259-.364zm1.691-8.316h2.153v8.863h-2.153zm1.06-3.81c.353 0 .646.122.878.365s.348.552.348.927c0 .365-.116.669-.348.912a1.162 1.162 0 0 1 -.878.364c-.354 0-.646-.121-.878-.364a1.269 1.269 0 0 1 -.348-.912c0-.375.116-.684.348-.927s.524-.365.878-.365zm7.637 3.744c.916 0 1.723.188 2.418.563a3.992 3.992 0 0 1 1.64 1.591c.398.673.597 1.452.597 2.336 0 .894-.199 1.684-.597 2.368a3.992 3.992 0 0 1 -1.64 1.591c-.695.375-1.502.563-2.418.563-.928 0-1.745-.188-2.452-.563a4.108 4.108 0 0 1 -1.657-1.591c-.386-.684-.579-1.474-.579-2.368 0-.884.193-1.663.579-2.336a4.108 4.108 0 0 1 1.657-1.591c.707-.375 1.524-.563 2.452-.563zm0 1.839c-.751 0-1.359.248-1.822.745-.464.497-.696 1.143-.696 1.939 0 .795.232 1.441.696 1.938.463.497 1.071.745 1.822.745.729 0 1.325-.248 1.789-.745s.696-1.143.696-1.938c0-.796-.232-1.442-.696-1.939s-1.06-.745-1.789-.745zm11.86-1.855c1.016 0 1.816.309 2.402.927.585.608.878 1.436.878 2.485v5.533h-2.17v-4.903c0-.619-.177-1.105-.531-1.458-.353-.365-.833-.547-1.441-.547-.718.011-1.286.254-1.706.729-.409.475-.613 1.082-.613 1.822v4.357h-2.153v-8.863h2.153v1.657c.607-1.137 1.668-1.717 3.181-1.739zm-74.239 20c1.016 0 1.817.309 2.402.927.586.608.878 1.436.878 2.485v5.533h-2.17v-4.903c0-.619-.177-1.105-.53-1.458-.353-.365-.834-.547-1.441-.547-.718.011-1.287.254-1.706.729-.409.475-.613 1.082-.613 1.822v4.357h-2.154v-8.863h2.154v1.657c.607-1.137 1.667-1.717 3.18-1.739zm9.393.016c1.414 0 2.474.403 3.181 1.21.718.806 1.077 1.938 1.077 3.395 0 .288-.006.503-.017.647h-6.543c.143.629.436 1.126.878 1.49.452.354 1.005.531 1.656.531.453 0 .884-.083 1.292-.249.42-.177.784-.425 1.094-.745l1.159 1.209a4.472 4.472 0 0 1 -1.623 1.126c-.63.265-1.331.398-2.104.398-.906 0-1.706-.188-2.402-.563a3.962 3.962 0 0 1 -1.59-1.574c-.376-.685-.564-1.469-.564-2.352 0-.884.188-1.668.564-2.353a4.047 4.047 0 0 1 1.606-1.59c.685-.387 1.464-.58 2.336-.58zm2.286 3.81c-.022-.651-.237-1.17-.646-1.557-.408-.386-.949-.58-1.623-.58-.63 0-1.16.194-1.59.58-.42.376-.68.895-.779 1.557zm7.518-3.81c1.413 0 2.474.403 3.18 1.21.718.806 1.077 1.938 1.077 3.395 0 .288-.005.503-.016.647h-6.544c.144.629.436 1.126.878 1.49.453.354 1.005.531 1.657.531a3.4 3.4 0 0 0 1.292-.249c.42-.177.784-.425 1.093-.745l1.16 1.209a4.467 4.467 0 0 1 -1.624 1.126c-.629.265-1.33.398-2.103.398-.906 0-1.707-.188-2.403-.563a3.974 3.974 0 0 1 -1.59-1.574c-.375-.685-.563-1.469-.563-2.352 0-.884.188-1.668.563-2.353a4.05 4.05 0 0 1 1.607-1.59c.685-.387 1.463-.58 2.336-.58zm2.286 3.81c-.022-.651-.238-1.17-.646-1.557-.409-.386-.95-.58-1.624-.58-.629 0-1.159.194-1.59.58-.42.376-.679.895-.779 1.557zm12.371-7.173v12.292h-2.153v-1.425a3.263 3.263 0 0 1 -1.243 1.144c-.497.254-1.077.381-1.739.381-.84 0-1.58-.188-2.22-.564a3.977 3.977 0 0 1 -1.474-1.607c-.354-.695-.531-1.49-.531-2.385 0-.884.172-1.662.514-2.336a3.87 3.87 0 0 1 1.474-1.59c.641-.376 1.37-.563 2.187-.563.674 0 1.265.132 1.773.397s.927.646 1.259 1.143v-4.887zm-4.671 10.586c.74 0 1.341-.249 1.805-.746.475-.508.713-1.159.713-1.954 0-.796-.238-1.442-.713-1.939-.464-.508-1.065-.762-1.805-.762s-1.342.254-1.806.762c-.464.497-.701 1.143-.712 1.939.011.795.248 1.446.712 1.954.464.497 1.066.746 1.806.746zm11.125-7.223c1.414 0 2.474.403 3.181 1.21.718.806 1.077 1.938 1.077 3.395 0 .288-.006.503-.017.647h-6.543c.143.629.436 1.126.878 1.49.453.354 1.005.531 1.656.531.453 0 .884-.083 1.292-.249.42-.177.785-.425 1.094-.745l1.159 1.209a4.455 4.455 0 0 1 -1.623 1.126c-.63.265-1.331.398-2.104.398-.905 0-1.706-.188-2.402-.563a3.962 3.962 0 0 1 -1.59-1.574c-.376-.685-.563-1.469-.563-2.352 0-.884.187-1.668.563-2.353a4.043 4.043 0 0 1 1.607-1.59c.684-.387 1.463-.58 2.335-.58zm2.286 3.81c-.022-.651-.237-1.17-.646-1.557-.408-.386-.949-.58-1.623-.58-.63 0-1.16.194-1.59.58-.42.376-.68.895-.779 1.557zm12.372-7.173v12.292h-2.154v-1.425c-.32.497-.734.878-1.242 1.144-.497.254-1.077.381-1.74.381-.839 0-1.579-.188-2.219-.564a3.987 3.987 0 0 1 -1.475-1.607c-.353-.695-.53-1.49-.53-2.385 0-.884.171-1.662.514-2.336a3.863 3.863 0 0 1 1.474-1.59c.641-.376 1.369-.563 2.187-.563.673 0 1.264.132 1.772.397a3.37 3.37 0 0 1 1.259 1.143v-4.887zm-4.672 10.586c.74 0 1.342-.249 1.806-.746.475-.508.712-1.159.712-1.954 0-.796-.237-1.442-.712-1.939-.464-.508-1.066-.762-1.806-.762s-1.342.254-1.805.762c-.464.497-.702 1.143-.713 1.939.011.795.249 1.446.713 1.954.463.497 1.065.746 1.805.746z" fill="#fff"/><g filter="url(#i)" opacity=".3"><rect fill="#566fa0" height="81.014" rx="36.353" transform="matrix(.70710678 -.70710678 .70710678 .70710678 141.703171 511.251717)" width="78.227" x="687.987" y="84.575"/></g><rect fill="url(#l)" height="94.213" rx="14.725" transform="matrix(.70710678 -.70710678 .70710678 .70710678 150.958304 498.811586)" width="95.012" x="677.598" y="67.183"/><path d="m731.494 48.58h8.002l-.017 1.938h-5.765v3.13h5.251v1.94h-5.251v4.588h-2.22zm9.575 2.733h2.154v8.863h-2.154zm1.061-3.81c.353 0 .646.121.878.364s.348.553.348.928c0 .365-.116.668-.348.911a1.163 1.163 0 0 1 -.878.365c-.354 0-.646-.122-.878-.365a1.267 1.267 0 0 1 -.348-.91c0-.376.116-.686.348-.929.232-.242.524-.364.878-.364zm2.816 3.81h2.485l1.839 2.883 1.888-2.883h2.369l-2.816 4.324 3.015 4.539h-2.485l-1.971-3.098-2.137 3.098h-2.402l3.098-4.54zm-27.783 19.917c1.016 0 1.817.31 2.402.928.585.607.878 1.436.878 2.485v5.533h-2.17v-4.904c0-.618-.177-1.104-.53-1.458-.354-.364-.834-.546-1.442-.546-.717.01-1.286.254-1.706.729-.408.475-.613 1.082-.613 1.822v4.357h-2.153v-8.863h2.153v1.657c.608-1.138 1.668-1.718 3.181-1.74zm9.393.017c1.413 0 2.474.403 3.18 1.21.718.805 1.077 1.937 1.077 3.395 0 .287-.005.503-.016.646h-6.544c.144.63.436 1.127.878 1.491.453.353 1.005.53 1.657.53.453 0 .883-.083 1.292-.248a3.25 3.25 0 0 0 1.093-.746l1.16 1.21a4.47 4.47 0 0 1 -1.624 1.126c-.629.265-1.33.398-2.103.398-.906 0-1.707-.188-2.402-.564a3.969 3.969 0 0 1 -1.591-1.573c-.375-.685-.563-1.47-.563-2.353s.188-1.667.563-2.352a4.048 4.048 0 0 1 1.607-1.59c.685-.387 1.463-.58 2.336-.58zm2.286 3.81c-.022-.652-.237-1.17-.646-1.557s-.95-.58-1.624-.58c-.629 0-1.159.193-1.59.58-.42.375-.679.894-.778 1.557zm7.517-3.81c1.414 0 2.474.403 3.181 1.21.718.805 1.077 1.937 1.077 3.395 0 .287-.006.503-.017.646h-6.543c.143.63.436 1.127.878 1.491.453.353 1.005.53 1.656.53.453 0 .884-.083 1.292-.248a3.26 3.26 0 0 0 1.094-.746l1.159 1.21a4.457 4.457 0 0 1 -1.623 1.126c-.63.265-1.331.398-2.104.398-.905 0-1.706-.188-2.402-.564a3.96 3.96 0 0 1 -1.59-1.573c-.376-.685-.563-1.47-.563-2.353s.187-1.667.563-2.352a4.042 4.042 0 0 1 1.607-1.59c.684-.387 1.463-.58 2.335-.58zm2.287 3.81c-.023-.652-.238-1.17-.647-1.557-.408-.387-.949-.58-1.623-.58-.63 0-1.16.193-1.59.58-.42.375-.68.894-.779 1.557zm12.371-7.173v12.292h-2.154v-1.426c-.32.497-.734.878-1.242 1.143-.497.254-1.077.381-1.74.381-.839 0-1.579-.188-2.219-.563a3.991 3.991 0 0 1 -1.475-1.607c-.353-.696-.53-1.49-.53-2.385 0-.884.171-1.662.514-2.336a3.868 3.868 0 0 1 1.474-1.59c.641-.376 1.369-.564 2.187-.564.673 0 1.264.133 1.772.398a3.37 3.37 0 0 1 1.259 1.143v-4.887h2.154zm-4.672 10.585c.74 0 1.342-.248 1.806-.745.475-.508.712-1.16.712-1.955s-.237-1.44-.712-1.938c-.464-.508-1.066-.762-1.806-.762s-1.342.254-1.805.762c-.464.497-.702 1.143-.713 1.938.011.795.249 1.447.713 1.955.463.497 1.065.745 1.805.745zm11.126-7.222c1.414 0 2.474.403 3.181 1.21.718.805 1.076 1.937 1.076 3.395 0 .287-.005.503-.016.646h-6.544c.144.63.437 1.127.878 1.491.453.353 1.005.53 1.657.53.453 0 .883-.083 1.292-.248a3.25 3.25 0 0 0 1.093-.746l1.16 1.21a4.474 4.474 0 0 1 -1.623 1.126c-.63.265-1.331.398-2.104.398-.906 0-1.707-.188-2.402-.564a3.969 3.969 0 0 1 -1.591-1.573c-.375-.685-.563-1.47-.563-2.353s.188-1.667.563-2.352a4.055 4.055 0 0 1 1.607-1.59c.685-.387 1.464-.58 2.336-.58zm2.286 3.81c-.022-.652-.237-1.17-.646-1.557s-.95-.58-1.623-.58c-.63 0-1.16.193-1.591.58-.419.375-.679.894-.778 1.557zm12.371-7.173v12.292h-2.153v-1.426c-.32.497-.735.878-1.243 1.143-.497.254-1.076.381-1.739.381-.839 0-1.579-.188-2.22-.563a3.989 3.989 0 0 1 -1.474-1.607c-.354-.696-.53-1.49-.53-2.385 0-.884.171-1.662.513-2.336a3.877 3.877 0 0 1 1.475-1.59c.64-.376 1.369-.564 2.186-.564.674 0 1.265.133 1.773.398s.927.646 1.259 1.143v-4.887h2.153zm-4.671 10.585c.74 0 1.342-.248 1.805-.745.475-.508.713-1.16.713-1.955s-.238-1.44-.713-1.938c-.463-.508-1.065-.762-1.805-.762s-1.342.254-1.806.762c-.464.497-.701 1.143-.712 1.938.011.795.248 1.447.712 1.955.464.497 1.066.745 1.806.745z" fill="#fff"/><rect fill="#3477f9" height="34.052" rx="17.026" width="46.936" x="524.825" y="118.721"/><path d="m546.114 131.872-3.05 5.671v2.704h-1.891v-2.656l-3.099-5.719h1.903l2.141 3.757 2.094-3.757zm2.901 1.879c1.037 0 1.823.299 2.357.897.542.598.814 1.432.814 2.5 0 .192-.004.339-.012.443h-4.619c.104.407.303.726.599.957.295.223.65.335 1.064.335.303 0 .595-.056.874-.167.279-.12.53-.291.754-.515l.969.981c-.327.367-.726.65-1.197.85a4.038 4.038 0 0 1 -1.555.287c-.678 0-1.272-.136-1.783-.407a2.904 2.904 0 0 1 -1.172-1.148c-.271-.495-.407-1.065-.407-1.711 0-.654.14-1.229.419-1.723a2.88 2.88 0 0 1 1.172-1.161c.503-.279 1.077-.418 1.723-.418zm1.436 2.751c-.016-.422-.152-.761-.407-1.017-.255-.255-.594-.383-1.017-.383-.399 0-.734.128-1.005.383-.263.248-.431.587-.503 1.017zm6.995-.801a5.087 5.087 0 0 0 -1.041-.455 3.002 3.002 0 0 0 -.921-.167c-.224 0-.403.039-.539.119a.392.392 0 0 0 -.203.359c0 .176.092.311.275.407.184.096.483.203.897.323.455.136.83.271 1.125.407.295.127.55.323.766.586.215.255.323.594.323 1.017 0 .638-.247 1.137-.742 1.495-.486.351-1.113.527-1.878.527a5.1 5.1 0 0 1 -1.52-.227 4.024 4.024 0 0 1 -1.268-.67l.598-1.245c.327.256.69.455 1.089.598.407.136.79.204 1.149.204.247 0 .442-.04.586-.12a.419.419 0 0 0 .227-.383c0-.183-.096-.327-.287-.43-.183-.104-.483-.216-.897-.335a9.703 9.703 0 0 1 -1.101-.383 2 2 0 0 1 -.742-.574c-.207-.264-.311-.603-.311-1.017 0-.638.239-1.133.718-1.484s1.085-.526 1.819-.526c.438 0 .877.063 1.316.191.438.12.837.295 1.196.526z" fill="#fff"/><rect fill="#3477f9" height="34.052" rx="17.026" width="46.936" x="719.932" y="136.207"/><path d="m741.222 149.358-3.051 5.671v2.704h-1.89v-2.656l-3.099-5.719h1.902l2.142 3.757 2.094-3.757zm2.901 1.879c1.037 0 1.822.299 2.357.897.542.598.813 1.432.813 2.5 0 .192-.004.339-.012.443h-4.618c.104.407.303.726.598.957.295.224.65.335 1.065.335.303 0 .594-.056.873-.167.28-.12.531-.291.754-.515l.969.981c-.327.367-.726.65-1.196.85a4.042 4.042 0 0 1 -1.555.287c-.678 0-1.273-.136-1.783-.407a2.907 2.907 0 0 1 -1.173-1.148c-.271-.495-.406-1.065-.406-1.711 0-.654.139-1.229.418-1.723.28-.503.67-.889 1.173-1.161.502-.279 1.077-.418 1.723-.418zm1.435 2.751c-.016-.422-.151-.761-.406-1.017-.256-.255-.595-.382-1.017-.382a1.41 1.41 0 0 0 -1.005.382c-.264.248-.431.587-.503 1.017zm6.996-.801a5.087 5.087 0 0 0 -1.041-.455 3.003 3.003 0 0 0 -.922-.167c-.223 0-.402.04-.538.119a.39.39 0 0 0 -.203.359c0 .176.091.311.275.407.183.096.482.203.897.323.455.136.83.271 1.125.407.295.127.55.323.765.586.216.255.324.594.324 1.017 0 .638-.248 1.137-.742 1.496-.487.35-1.113.526-1.879.526a5.093 5.093 0 0 1 -1.519-.227 4.013 4.013 0 0 1 -1.268-.67l.598-1.245c.327.256.69.455 1.089.599.406.135.789.203 1.148.203.247 0 .443-.04.586-.12a.417.417 0 0 0 .228-.383c0-.183-.096-.327-.287-.43-.184-.104-.483-.216-.898-.335a9.554 9.554 0 0 1 -1.1-.383 1.991 1.991 0 0 1 -.742-.574c-.208-.264-.311-.603-.311-1.017 0-.638.239-1.133.718-1.484.478-.351 1.084-.526 1.818-.526.439 0 .878.064 1.316.191.439.12.838.295 1.197.527z" fill="#fff"/><rect fill="#3477f9" height="34.052" rx="17.026" width="43.255" x="525.745" y="314.749"/><path d="m545.585 327.9h1.794v8.375h-1.723l-4.056-5.384v5.384h-1.806v-8.375h1.723l4.068 5.408zm6.509 1.878c.678 0 1.276.136 1.795.407.526.271.933.654 1.22 1.149.287.494.431 1.069.431 1.723 0 .646-.144 1.22-.431 1.722a3.003 3.003 0 0 1 -1.22 1.161c-.519.271-1.117.407-1.795.407-.686 0-1.292-.136-1.819-.407a3.022 3.022 0 0 1 -1.208-1.161c-.287-.502-.431-1.076-.431-1.722 0-.654.144-1.229.431-1.723.287-.495.69-.878 1.208-1.149.527-.271 1.133-.407 1.819-.407zm0 1.532c-.479 0-.869.163-1.172.49-.296.327-.443.754-.443 1.28 0 .527.147.954.443 1.281.303.327.693.49 1.172.49.471 0 .853-.163 1.149-.49.303-.327.454-.754.454-1.281 0-.526-.151-.953-.454-1.28-.296-.327-.678-.49-1.149-.49z" fill="#fff"/><rect fill="#3477f9" height="34.052" rx="17.026" width="43.255" x="844.175" y="136.207"/><path d="m864.015 149.358h1.794v8.375h-1.723l-4.055-5.384v5.384h-1.807v-8.375h1.723l4.068 5.408zm6.509 1.879c.678 0 1.276.135 1.795.406.526.272.933.654 1.22 1.149.287.494.431 1.069.431 1.723 0 .646-.144 1.22-.431 1.723a3.007 3.007 0 0 1 -1.22 1.16c-.519.271-1.117.407-1.795.407-.686 0-1.292-.136-1.818-.407a3.023 3.023 0 0 1 -1.209-1.16c-.287-.503-.43-1.077-.43-1.723 0-.654.143-1.229.43-1.723.287-.495.69-.877 1.209-1.149.526-.271 1.132-.406 1.818-.406zm0 1.531c-.478 0-.869.164-1.172.491-.295.327-.443.753-.443 1.28 0 .526.148.953.443 1.28.303.327.694.49 1.172.49.471 0 .854-.163 1.149-.49.303-.327.454-.754.454-1.28 0-.527-.151-.953-.454-1.28-.295-.327-.678-.491-1.149-.491z" fill="#fff"/></svg>